<?xml version="1.0" standalone="no"?>
<!DOCTYPE svg PUBLIC "-//W3C//DTD SVG 1.1//EN" "http://www.w3.org/Graphics/SVG/1.1/DTD/svg11.dtd" >
<svg>
<metadata>
Created by FontForge 20090914 at Mon Jul 22 14:46:12 2013
 By www-data
Copyright (c) 2011 by Vissol Ltd. All rights reserved.
</metadata>
<defs>
<font id="MavenProBlack" horiz-adv-x="1159" >
  <font-face 
    font-family="Maven Pro"
    font-weight="900"
    font-stretch="normal"
    units-per-em="2048"
    panose-1="2 0 0 0 0 0 0 0 0 0"
    ascent="1638"
    descent="-410"
    x-height="1022"
    cap-height="1366"
    bbox="-76 -430 2111 1794"
    underline-thickness="102"
    underline-position="-102"
    unicode-range="U+0020-U+FB04"
  />
<missing-glyph horiz-adv-x="1024" 
 />
    <glyph glyph-name=".notdef" horiz-adv-x="1024" 
 />
    <glyph glyph-name="space" unicode=" " horiz-adv-x="692" 
 />
    <glyph glyph-name="exclam" unicode="!" horiz-adv-x="882" 
d="M279 1366h354l-45 -975h-264zM297 0v262h317v-262h-317z" />
    <glyph glyph-name="quotedbl" unicode="&#x22;" horiz-adv-x="899" 
d="M166 1384h254l-35 -411h-182zM477 1384h254l-35 -411h-182z" />
    <glyph glyph-name="numbersign" unicode="#" horiz-adv-x="1288" 
d="M152 248v186.001h176c2.66699 18 9 54.667 19 110l24 132h-164v184h194l37 209h197l-37 -209h217c22 113.333 34.333 183 37 209h197l-39 -209h125v-184h-154c-2.66699 -18 -9.5 -55 -20.5 -111s-18.5 -99.667 -22.5 -131h143v-186h-174
c-4 -24.667 -10.5 -61.667 -19.5 -111s-14.833 -82 -17.5 -98h-196l37 209h-219c-5.33301 -28.667 -17 -98.334 -35 -209.001h-197l39 209h-147zM524 434.001h221l39 242h-217c-4 -31.333 -11.5 -75 -22.5 -131s-17.833 -93 -20.5 -111z" />
    <glyph glyph-name="dollar" unicode="$" horiz-adv-x="1212" 
d="M147 952c0 128.667 40.998 228.5 122.998 299.5s187.333 111.167 316 120.5v217h125v-215c112 -9.33301 215.667 -40 311 -92v-307c-108 64 -211.667 96.667 -311 98v-244c58.667 -16.667 108.167 -33.334 148.5 -50.001s83.333 -41.167 129 -73.5
s80.334 -75.333 104.001 -129s35.5 -116.834 35.5 -189.501c0 -109.333 -39.5 -200.166 -118.5 -272.499s-178.5 -115.166 -298.5 -128.499v-207h-125v203c-166.667 8 -307.334 52.333 -422.001 133v329c126 -104.667 265.667 -157 419 -157h3v243
c-62.667 15.333 -114.167 30.5 -154.5 45.5s-85.166 37.833 -134.499 68.5s-86.666 71.667 -111.999 123s-38 113 -38 185zM456.998 958c0 -38 43 -70 129 -96v203c-86 -15.333 -129 -51 -129 -107zM710.998 299c80 18 120 51.667 120 101c0 40 -40 73.333 -120 100v-201z
" />
    <glyph glyph-name="percent" unicode="%" horiz-adv-x="1890" 
d="M147 983c0 251.333 96.333 377 289 377c194 0 291 -125.667 291 -377s-97 -377 -291 -377c-192.667 0 -289 125.667 -289 377zM354 983c0 -96.667 27.333 -145 82 -145c56 0 84 48.333 84 145c0 58.667 -7.5 97.5 -22.5 116.5s-35.5 28.5 -61.5 28.5
c-54.667 0 -82 -48.333 -82 -145zM387 0l858 1366h234l-858 -1366h-234zM1141 383c0 251.333 96.333 377 289 377c194 0 291 -125.333 291 -376c-0.666992 -252 -97.667 -378 -291 -378c-192.667 0 -289 125.667 -289 377zM1346 383c0 -96.667 28 -145 84 -145
c54.667 0 82 47.667 82 143c0 98 -27.333 147 -82 147c-56 0 -84 -48.333 -84 -145z" />
    <glyph glyph-name="ampersand" unicode="&#x26;" horiz-adv-x="1337" 
d="M113 397c0 75.333 14.998 144.335 44.998 207.002s94 125.667 192 189c0 1.33301 -3 5.66602 -9 12.999l-15 20c-4.66699 5.33301 -10.667 13.333 -18 24s-13.666 20.834 -18.999 30.501s-11.166 21.667 -17.499 36s-11.5 28 -15.5 41s-7.33301 27.333 -10 43
s-4 31.167 -4 46.5c0 91.333 28.667 168.666 86 231.999s139.666 95 246.999 95c106.667 0 189.667 -30.333 249 -91s89 -140.334 89 -239.001c0 -74 -15.667 -133.667 -47 -179s-85 -92 -161 -140l22 -27c9.33301 -12 29 -35.333 59 -70l107 -126l31 131h235
c-21.333 -130 -56 -239.333 -104 -328l254 -305h-308l-92 117c-98 -88.667 -215.333 -133 -352 -133c-76.667 0 -144.667 13.667 -204 41s-105.666 62.5 -138.999 105.5s-58.5 87.333 -75.5 133s-25.5 90.167 -25.5 133.5zM341.998 391.002c0 -15.333 3 -32.499 9 -51.499
s16.667 -39 32 -60s38.333 -38.667 69 -53s67 -21.5 109 -21.5c79.333 0 148.333 28 207 84l-268 323c-38 -20.667 -68.667 -41.834 -92 -63.501s-39.5 -43 -48.5 -64s-14.167 -37 -15.5 -48s-2 -26.167 -2 -45.5zM468.998 1049c0 -27.333 27.332 -75.333 81.999 -144
c54.667 31.333 90.834 58 108.501 80s26.5 46 26.5 72c0 28.667 -10.5 53.167 -31.5 73.5s-46.667 30.5 -77 30.5s-56 -10.833 -77 -32.5s-31.5 -48.167 -31.5 -79.5z" />
    <glyph glyph-name="quotesingle" unicode="'" horiz-adv-x="583" 
d="M166 1384h254l-35 -411h-182z" />
    <glyph glyph-name="parenleft" unicode="(" horiz-adv-x="796" 
d="M190 627c0 293.333 70.333 578.666 211 855.999h258c-140 -276 -210 -560 -210 -852c0 -293.333 70 -580.666 210 -861.999h-258c-140.667 281.333 -211 567.333 -211 858z" />
    <glyph glyph-name="parenright" unicode=")" horiz-adv-x="796" 
d="M133 -231c140.667 281.333 211 567.333 211 858c0 293.333 -70.333 578.666 -211 855.999h258c140.667 -277.333 211 -562.666 211 -855.999c0 -290.667 -70.333 -576.667 -211 -858h-258z" />
    <glyph glyph-name="asterisk" unicode="*" horiz-adv-x="845" 
d="M172 1133l158 57l-158 57l78 139l110 -79l-12 131h160l-10 -131l108 79l78 -139l-156 -57l156 -57l-78 -140l-108 80l10 -131h-160l12 131l-110 -80z" />
    <glyph glyph-name="plus" unicode="+" horiz-adv-x="1128" 
d="M190 498v229h259v258h229v-258h256v-229h-256v-256h-229v256h-259z" />
    <glyph glyph-name="comma" unicode="," horiz-adv-x="751" 
d="M152 -229l151 401h285l-197 -401h-239z" />
    <glyph glyph-name="hyphen" unicode="-" horiz-adv-x="950" 
d="M162 514v240h624v-240h-624z" />
    <glyph glyph-name="period" unicode="." horiz-adv-x="811" 
d="M260 0v283h295v-283h-295z" />
    <glyph glyph-name="slash" unicode="/" horiz-adv-x="948" 
d="M-29 -201l752 1749h256l-754 -1749h-254z" />
    <glyph glyph-name="zero" unicode="0" horiz-adv-x="1345" 
d="M119 684c0 466.667 184.333 700 553 700s553 -233.333 553 -700s-184.333 -700 -553 -700s-553 233.333 -553 700zM473 684c0 -152.667 18.5 -256.667 55.5 -312s84.833 -83 143.5 -83c60 0 108.667 27.667 146 83s56 159.333 56 312c0 266 -67.333 399 -202 399
c-132.667 0 -199 -133 -199 -399z" />
    <glyph glyph-name="one" unicode="1" horiz-adv-x="1040" 
d="M211 840v346l285 180h288v-1366h-352v975z" />
    <glyph glyph-name="two" unicode="2" horiz-adv-x="1269" 
d="M158 0v279.001c386 288.667 579 502.667 579 642c0 41.333 -15 74.666 -45 99.999s-74.333 38 -133 38c-120 0 -250.333 -56 -391 -168v356c148.667 91.333 290 137 424 137c169.333 0 293.833 -42.667 373.5 -128s119.5 -188 119.5 -308
c0 -105.333 -38.833 -213.833 -116.5 -325.5s-168.5 -213.5 -272.5 -305.5h398v-317h-936z" />
    <glyph glyph-name="three" unicode="3" horiz-adv-x="1228" 
d="M139 98l-0.000976562 338.001c152.667 -91.333 286.667 -137 402 -137c58.667 0 106.667 13.667 144 41s56 61.5 56 102.5s-15.667 76.167 -47 105.5s-84.333 44 -159 44h-224v254h228c48 0 83.833 10.833 107.5 32.5s35.5 48.167 35.5 79.5c0 32.667 -18.5 58 -55.5 76
s-79.167 27 -126.5 27h-28h-30c-5.33301 0 -14.833 -0.333008 -28.5 -1s-24.5 -1.66699 -32.5 -3s-19.167 -3 -33.5 -5s-27.5 -4.66699 -39.5 -8l-42 -13c-16 -4.66699 -32.667 -10.334 -50 -17.001s-34.666 -14.334 -51.999 -23.001v297c121.333 64 246.333 96 375 96
c58.667 0 115.334 -6 170.001 -18s107.5 -31.333 158.5 -58s91.833 -65.667 122.5 -117s46 -111.666 46 -180.999c0 -64 -21.833 -122.167 -65.5 -174.5s-92.834 -83.833 -147.501 -94.5c80.667 -23.333 145.667 -67 195 -131s74 -139.667 74 -227
c0 -78 -16.5 -144.333 -49.5 -199s-77.5 -96 -133.5 -124s-112.667 -47.667 -170 -59s-118.666 -17 -183.999 -17c-126.667 0 -265.334 38 -416.001 114z" />
    <glyph glyph-name="four" unicode="4" horiz-adv-x="1265" 
d="M80 348v270l598 748h307v-719h164v-299h-164v-348h-350v348h-555zM455 647h180v240z" />
    <glyph glyph-name="five" unicode="5" horiz-adv-x="1280" 
d="M162 707l73.999 660.999h806v-315h-499l-11 -119c20.667 2.66699 53.667 4 99 4c152.667 0 271.334 -41.667 356.001 -125s127 -211.666 127 -384.999c0 -84.667 -13.667 -157.334 -41 -218.001s-64.833 -106.667 -112.5 -138s-98.167 -53.833 -151.5 -67.5
s-111.333 -20.5 -174 -20.5c-142 0 -289.333 38 -442 114v334c142 -90 273.667 -135 395 -135c58.667 0 102.667 16.333 132 49s44 70.334 44 113.001c0 54.667 -15 96 -45 124s-69 42 -117 42h-17c-90.667 0 -167 -20 -229 -60z" />
    <glyph glyph-name="six" unicode="6" horiz-adv-x="1234" 
d="M160 971c32.667 96.667 71.8311 170.33 117.498 220.997s100 91.334 163 122.001s118 50 165 58s94.5 12 142.5 12c117.333 0 210 -16.333 278 -49v-297c-96.667 30 -180 45 -250 45c-76.667 0 -147 -17 -211 -51s-100.667 -86.667 -110 -158c44.667 18 108 27 190 27
c64 0 120.667 -5.16699 170 -15.5s98.833 -28.666 148.5 -54.999s88.167 -69.333 115.5 -129s41 -133.167 41 -220.5c0 -60 -9.16699 -118.333 -27.5 -175s-46.666 -109.5 -84.999 -158.5s-91.166 -88.5 -158.499 -118.5s-145 -45 -233 -45
c-336.667 0 -505 215.333 -505 646c0 130.667 16.333 244.334 49 341.001zM460.997 656.996l-0.000976562 -28c0 -106.667 14.333 -189 43 -247c30.667 -63.333 68 -95 112 -95c40.667 0 73.5 15 98.5 45s39.833 57.667 44.5 83s7 48 7 68c0 52 -12.667 97.833 -38 137.5
s-64 59.5 -116 59.5c-65.333 0 -115.666 -7.66699 -150.999 -23z" />
    <glyph glyph-name="seven" unicode="7" horiz-adv-x="1226" 
d="M135 1016v350h1004v-258l-537 -1108h-407l495 1016h-555z" />
    <glyph glyph-name="eight" unicode="8" horiz-adv-x="1261" 
d="M119 397c0 82 26.1689 153.833 78.502 215.5s116.833 102.5 193.5 122.5c-58.667 16.667 -109.834 49.5 -153.501 98.5s-65.5 107.167 -65.5 174.5c0 250.667 153 376 459 376h2c306 0 459 -125.333 459 -376c0 -66.667 -21.667 -125 -65 -175s-94.333 -82.667 -153 -98
c75.333 -20.667 139.666 -61.667 192.999 -123s80 -133 80 -215c0 -136.667 -45 -239.667 -135 -309s-216.333 -104 -379 -104s-289 34.833 -379 104.5s-135 172.5 -135 308.5zM473.002 442c0 -49.333 13.333 -90 40 -122s66.667 -48 120 -48c52 0 91.333 16.167 118 48.5
s40 72.833 40 121.5c0 34 -13.667 65.167 -41 93.5s-66.333 42.5 -117 42.5c-52 0 -91.667 -14 -119 -42s-41 -59.333 -41 -94zM514.002 979c0 -35.333 12.333 -63 37 -83s52 -30 82 -30c28.667 0 55.334 10 80.001 30s37 47.667 37 83c0 28.667 -10.333 55.334 -31 80.001
s-49.334 37 -86.001 37c-38 0 -67.333 -12.333 -88 -37s-31 -51.334 -31 -80.001z" />
    <glyph glyph-name="nine" unicode="9" horiz-adv-x="1259" 
d="M111 887c0 60 9.1709 118.337 27.5039 175.004s46.666 109.5 84.999 158.5s91.166 88.5 158.499 118.5s144.666 45 231.999 45c337.333 0 506 -216.333 506 -649c0 -128.667 -16.333 -241.334 -49 -338.001s-71.834 -170.334 -117.501 -221.001
s-100 -91.334 -163 -122.001s-118 -50 -165 -58s-94.5 -12 -142.5 -12c-117.333 0 -210 16.333 -278 49v297c96.667 -30 180 -45 250 -45c76.667 0 147 17 211 51s100.667 86.667 110 158c-44.667 -18 -108 -27 -190 -27c-64 0 -120.667 5.16699 -170 15.5
s-98.833 28.833 -148.5 55.5s-88.167 69.667 -115.5 129s-41 132.666 -41 219.999zM465.004 885.004c0 -52 12.6699 -97.833 38.0029 -137.5s63.666 -59.5 114.999 -59.5c65.333 0 116 7.66699 152 23v28c0 106 -14.333 188.333 -43 247c-31.333 63.333 -69 95 -113 95
c-40.667 0 -73.334 -15 -98.001 -45s-39.334 -57.667 -44.001 -83s-7 -48 -7 -68z" />
    <glyph glyph-name="colon" unicode=":" horiz-adv-x="868" 
d="M281 72v282h294v-282h-294zM281 670v282h294v-282h-294z" />
    <glyph glyph-name="semicolon" unicode=";" horiz-adv-x="913" 
d="M166 -229l151 401h285l-196 -401h-240zM309 670v282h295v-282h-295z" />
    <glyph glyph-name="less" unicode="&#x3c;" horiz-adv-x="1368" 
d="M246 455v186l862 383v-279l-504 -196l504 -199v-278z" />
    <glyph glyph-name="equal" unicode="=" horiz-adv-x="1306" 
d="M250 285v239h805v-239h-805zM250 698v240h805v-240h-805z" />
    <glyph glyph-name="greater" unicode="&#x3e;" horiz-adv-x="1351" 
d="M238 72v278l503 199l-503 196v279l862 -383v-186z" />
    <glyph glyph-name="question" unicode="?" horiz-adv-x="1075" 
d="M164 1024v262.004c39.333 27.333 91.166 50.166 155.499 68.499s129.833 27.5 196.5 27.5c76.667 0 143.334 -11.167 200.001 -33.5s100.667 -53 132 -92s54.5 -81 69.5 -126s22.5 -93.5 22.5 -145.5c0 -46.667 -7.5 -88.667 -22.5 -126s-33.833 -68 -56.5 -92l-73 -74
l-72 -73c-22.667 -22.667 -41.5 -51.834 -56.5 -87.501s-22.5 -75.167 -22.5 -118.5v-21h-281v27c0 69.333 10.333 130.666 31 183.999s45.667 95.666 75 126.999s59 60 89 86s55.167 53 75.5 81s30.5 57.667 30.5 89c0 30 -5 55.333 -15 76s-25.333 35 -46 43
s-40.167 13.333 -58.5 16s-40.5 4 -66.5 4c-120 0 -222.333 -34 -307 -102zM338 0.00390625v262h317v-262h-317z" />
    <glyph glyph-name="at" unicode="@" horiz-adv-x="1869" 
d="M166 373c0 121.333 26.3281 236.668 78.9951 346.001s120.5 200.833 203.5 274.5s176.333 132 280 175s206.834 64.5 309.501 64.5c70.667 0 144 -12.667 220 -38s149.5 -62.833 220.5 -112.5s129.333 -120 175 -211s68.5 -193.833 68.5 -308.5
c0 -138 -30.667 -258.833 -92 -362.5s-150.666 -155.5 -267.999 -155.5c-45.333 0 -83.333 13.667 -114 41s-52 57.333 -64 90c-20.667 -38 -55.167 -69.333 -103.5 -94s-106.833 -37 -175.5 -37c-104 0 -186 23.5 -246 70.5s-90 111.5 -90 193.5
c0 35.333 5.83301 68.833 17.5 100.5s32.834 63.5 63.501 95.5s78.5 57.5 143.5 76.5s144.5 28.5 238.5 28.5c23.333 0 58.333 -1.33301 105 -4c-1.33301 44 -13 77.167 -35 99.5s-65 33.5 -129 33.5c-108 0 -203 -15 -285 -45l29 178c112 35.333 203.333 53.333 274 54
c226.667 0 340 -102.667 340 -308c0 -32.667 -5.16699 -83 -15.5 -151s-15.5 -121.333 -15.5 -160c0 -82 27.333 -123 82 -123c46.667 0 93.167 33.167 139.5 99.5s69.5 159.5 69.5 279.5c0 108 -29.333 204 -88 288s-129.667 146.167 -213 186.5s-169.333 60.5 -258 60.5
c-191.333 0 -361 -72.667 -509 -218s-222 -316.333 -222 -513c0 -83.333 14.667 -158.833 44 -226.5s65.166 -120.334 107.499 -158.001s89.833 -69.167 142.5 -94.5s98.834 -42.333 138.501 -51s73.834 -13 102.501 -13c172 0 328.333 34.667 469 104l-23 -149
c-122.667 -57.333 -270.667 -86 -444 -86c-70.667 0 -143 12.667 -217 38s-146.167 63.166 -216.5 113.499s-127.666 121.333 -171.999 213s-66.5 196.834 -66.5 315.501zM765.995 313.002c0 -47.333 46.332 -71.001 138.999 -71.001c74 0 125.333 15.333 154 46
s46.334 83.334 53.001 158.001c-18 1.33301 -44.667 2.33301 -80 3c-177.333 0 -266 -45.333 -266 -136z" />
    <glyph glyph-name="A" unicode="A" horiz-adv-x="1503" 
d="M43 0l543 1366h332l542 -1366h-379l-106 328h-447l-106 -328h-379zM612 588h277l-137 424z" />
    <glyph glyph-name="B" unicode="B" horiz-adv-x="1349" 
d="M178 0l-0.000976562 1366h463c360.667 0 541 -127.667 541 -383c0 -44 -7.16699 -82.667 -21.5 -116s-34.166 -59.833 -59.499 -79.5s-46.833 -34 -64.5 -43s-38.167 -17.5 -61.5 -25.5c182.667 -52 274 -166 274 -342c0 -251.333 -189 -377 -567 -377h-504zM529.999 289
h201h7c46 -0.666992 85.333 11 118 35c34 25.333 51 63.333 51 114s-19 87.667 -57 111s-79.667 35 -125 35h-195v-295zM529.999 831h181c32.667 0 62.334 10.333 89.001 31s40 48.667 40 84c0 46.667 -15.333 80.5 -46 101.5s-65.334 31.5 -104.001 31.5h-160v-248z" />
    <glyph glyph-name="C" unicode="C" horiz-adv-x="1314" 
d="M125 684c0 138 19.167 255.165 57.5 351.498s90.166 168.333 155.499 216s132.5 81.334 201.5 101.001s144.5 29.5 226.5 29.5c131.333 0 277.333 -32 438 -96v-305c-136.667 65.333 -276 98 -418 98c-94 0 -169 -28.667 -225 -86s-84 -160.333 -84 -309
s28 -251.667 84 -309s131 -86 225 -86c142 0 281.333 32.667 418 98v-305c-161.333 -64 -307.333 -96 -438 -96c-82 0 -157.5 9.83301 -226.5 29.5s-136.167 53.334 -201.5 101.001s-117.166 119.667 -155.499 216s-57.5 213.5 -57.5 351.5z" />
    <glyph glyph-name="D" unicode="D" horiz-adv-x="1443" 
d="M178 0v1366h492c211.333 0 372.333 -58 483 -174s166 -286 166 -510c0 -222.667 -55.333 -392 -166 -508s-271.667 -174 -483 -174h-492zM530 289h140c198 0 297 131 297 393c0 264.667 -99 397 -297 397h-140v-790z" />
    <glyph glyph-name="E" unicode="E" horiz-adv-x="1247" 
d="M178 0v1366h952v-287h-600v-252h521v-288h-521v-250h600v-289h-952z" />
    <glyph glyph-name="F" unicode="F" horiz-adv-x="1187" 
d="M178 0v1366h928v-287h-576v-276h498v-289h-498v-514h-352z" />
    <glyph glyph-name="G" unicode="G" horiz-adv-x="1427" 
d="M125 682c0 138 19.168 255.162 57.501 351.495s90.166 168.333 155.499 216s132.5 81.334 201.5 101.001s144.5 29.5 226.5 29.5c162.667 0 319.667 -34 471 -102v-283c-138 56 -277.333 84 -418 84c-229.333 0 -344 -131.667 -344 -395c0 -148.667 30 -251.667 90 -309
s140.667 -86 242 -86c79.333 0 142 10 188 30v226h-243v262h524v-690c-148.667 -87.333 -318.667 -131 -510 -131c-64 0 -124 5.33301 -180 16s-113 31.834 -171 63.501s-107.833 72.334 -149.5 122.001s-75.5 116.834 -101.5 201.501s-39 182.334 -39 293.001z" />
    <glyph glyph-name="H" unicode="H" horiz-adv-x="1503" 
d="M180 0v1366h352v-539h439v539h352v-1366h-352v539h-439v-539h-352z" />
    <glyph glyph-name="I" unicode="I" horiz-adv-x="708" 
d="M180 0v1366h352v-1366h-352z" />
    <glyph glyph-name="J" unicode="J" horiz-adv-x="1060" 
d="M59 92l0.000976562 326c94 -86 191.667 -129 293 -129c48 0 87 13.667 117 41s45 69 45 125v911h352v-889c0 -82 -10.833 -153.667 -32.5 -215s-48.167 -109 -79.5 -143s-69.333 -61.667 -114 -83s-85.334 -35 -122.001 -41s-75 -9 -115 -9
c-117.333 0 -232 35.333 -344 106z" />
    <glyph glyph-name="K" unicode="K" horiz-adv-x="1505" 
d="M178 0v1366h352v-481l375 481h475l-536 -594l575 -772h-444l-348 532l-97 -108v-424h-352z" />
    <glyph glyph-name="L" unicode="L" horiz-adv-x="1179" 
d="M178 0v1366h352v-1049h607v-317h-959z" />
    <glyph glyph-name="M" unicode="M" horiz-adv-x="1695" 
d="M180 0v1366h346l322 -465l321 465h347v-1366h-353v846l-315 -453l-316 453v-846h-352z" />
    <glyph glyph-name="N" unicode="N" horiz-adv-x="1619" 
d="M178 0v1366h352l555 -819v819h353v-1366h-348l-560 813v-813h-352z" />
    <glyph glyph-name="O" unicode="O" horiz-adv-x="1538" 
d="M125 684c0 110.667 13 208.334 39 293.001s59.833 151.834 101.5 201.501s91.5 90.334 149.5 122.001s115 52.834 171 63.501s116 16 180 16s124 -5.33301 180 -16s113 -31.834 171 -63.501s107.833 -72.334 149.5 -122.001s75.5 -116.834 101.5 -201.501
s39 -182.334 39 -293.001s-13 -208.334 -39 -293.001s-59.833 -151.834 -101.5 -201.501s-91.5 -90.334 -149.5 -122.001s-115 -52.834 -171 -63.501s-116 -16 -180 -16s-124 5.33301 -180 16s-113 31.834 -171 63.501s-107.833 72.334 -149.5 122.001
s-75.5 116.834 -101.5 201.501s-39 182.334 -39 293.001zM477 684c0 -148.667 26.333 -251.667 79 -309s122.667 -86 210 -86s157.333 28.667 210 86s79 160.333 79 309s-26.333 251.667 -79 309s-122.667 86 -210 86s-157.333 -28.667 -210 -86s-79 -160.333 -79 -309z" />
    <glyph glyph-name="P" unicode="P" horiz-adv-x="1337" 
d="M176 0v1366h553c165.333 0 293.666 -42 384.999 -126s137 -201.667 137 -353c0 -152.667 -45.667 -271 -137 -355s-219.666 -126 -384.999 -126h-201v-406h-352zM528 696l168 -0.000976562c70.667 0 122.5 18.833 155.5 56.5s49.5 82.5 49.5 134.5
c0 50.667 -16.333 95.334 -49 134.001s-84.667 58 -156 58h-168v-383z" />
    <glyph glyph-name="Q" unicode="Q" horiz-adv-x="1529" 
d="M125 684c0 110.667 12.999 208.334 38.999 293.001s59.833 151.834 101.5 201.501s91.5 90.334 149.5 122.001s115 52.834 171 63.501s116 16 180 16s124 -5.33301 180 -16s113 -31.834 171 -63.501s107.833 -72.334 149.5 -122.001s75.5 -116.834 101.5 -201.501
s39 -182.334 39 -293.001c0 -402.667 -164.667 -630.667 -494 -684c5.33301 -108 76.333 -162 213 -162v-227c-333.333 0 -501.666 129 -504.999 387c-330.667 53.333 -496 282 -496 686zM476.999 684c0 -148.667 26.333 -251.667 79 -309s122.667 -86 210 -86
s157.333 28.667 210 86s79 160.333 79 309s-26.333 251.667 -79 309s-122.667 86 -210 86s-157.333 -28.667 -210 -86s-79 -160.333 -79 -309z" />
    <glyph glyph-name="R" unicode="R" horiz-adv-x="1396" 
d="M178 0v1366h539c166.667 0 300.167 -38.833 400.5 -116.5s150.5 -186.834 150.5 -327.501c0 -108 -25 -196.833 -75 -266.5s-116.667 -118.167 -200 -145.5l330 -510h-393l-254 457h-146v-457h-352zM530 721.001l209 0.000976562c48 0 89.333 16.667 124 50s52 76 52 128
c0 53.333 -17.333 96.666 -52 129.999s-76 50 -124 50h-209v-358z" />
    <glyph glyph-name="S" unicode="S" horiz-adv-x="1232" 
d="M127 954c0 140.667 48.501 246.501 145.501 317.501s217.167 106.5 360.5 106.5c130 0 252.667 -31.333 368 -94v-307c-110.667 65.333 -216.334 98 -317.001 98c-53.333 0 -100.833 -8.83301 -142.5 -26.5s-62.5 -46.834 -62.5 -87.501c0 -26 15.333 -47.667 46 -65
s69.667 -30.333 117 -39s97.833 -23 151.5 -43s104.167 -44.333 151.5 -73s86.333 -73 117 -133s46 -133 46 -219c0 -120 -47.833 -217.5 -143.5 -292.5s-211.834 -112.5 -348.501 -112.5c-187.333 0 -345 44.333 -473 133v329c126 -104.667 265.667 -157 419 -157h3
c52 0 96.833 9.83301 134.5 29.5s56.5 47.834 56.5 84.501c0 24.667 -11.667 45.667 -35 63s-53.666 31 -90.999 41l-122 31c-44 10.667 -88.5 25.667 -133.5 45s-85.833 43 -122.5 71s-66.667 67.667 -90 119s-35 111.666 -35 180.999z" />
    <glyph glyph-name="T" unicode="T" horiz-adv-x="1191" 
d="M25 1047v319h1142v-319h-397v-1047h-352v1047h-393z" />
    <glyph glyph-name="U" unicode="U" horiz-adv-x="1533" 
d="M178 588v778h352v-819c0 -87.333 18.833 -152.166 56.5 -194.499s96.167 -63.5 175.5 -63.5s137.666 21.167 174.999 63.5s56 107.166 56 194.499v819h353v-778c0 -191.333 -51.333 -339.5 -154 -444.5s-246.167 -157.5 -430.5 -157.5s-327.666 52.5 -429.999 157.5
s-153.5 253.167 -153.5 444.5z" />
    <glyph glyph-name="V" unicode="V" horiz-adv-x="1413" 
d="M25 1366h376l306 -967l305 967h377l-521 -1366h-319z" />
    <glyph glyph-name="W" unicode="W" horiz-adv-x="2045" 
d="M27 1366h368l234 -862l243 862h304l243 -862l234 862h368l-440 -1366h-321l-236 782l-236 -782h-321z" />
    <glyph glyph-name="X" unicode="X" horiz-adv-x="1443" 
d="M25 0l485 692l-475 674h430l258 -369l260 369h403l-462 -653l503 -713h-430l-288 410l-289 -410h-395z" />
    <glyph glyph-name="Y" unicode="Y" horiz-adv-x="1492" 
d="M25 1366h428l290 -520l291 520h428l-542 -791v-575h-353v575z" />
    <glyph glyph-name="Z" unicode="Z" horiz-adv-x="1337" 
d="M133 0v291l617 762h-611v313h1047v-285l-598 -772h598v-309h-1053z" />
    <glyph glyph-name="bracketleft" unicode="[" horiz-adv-x="849" 
d="M244 -238v1663h436v-247h-209v-1168h209v-248h-436z" />
    <glyph glyph-name="backslash" unicode="\" horiz-adv-x="880" 
d="M-76 1548h256l752 -1749h-254z" />
    <glyph glyph-name="bracketright" unicode="]" horiz-adv-x="849" 
d="M172 10h209v1168h-209v247h436v-1663h-436v248z" />
    <glyph glyph-name="asciicircum" unicode="^" horiz-adv-x="1210" 
d="M246 958l282 455h148l289 -455h-230l-131 244l-131 -244h-227z" />
    <glyph glyph-name="underscore" unicode="_" horiz-adv-x="1118" 
d="M0 -49h1118v-209h-1118v209z" />
    <glyph glyph-name="grave" unicode="`" horiz-adv-x="571" 
d="M92 1393h240l127 -240h-176z" />
    <glyph glyph-name="a" unicode="a" horiz-adv-x="1142" 
d="M106 301c0 20.667 2.50195 41.832 7.50195 63.499s16.667 47.834 35 78.501s42.5 57.667 72.5 81s74.667 43.166 134 59.499s128.666 24.5 207.999 24.5c42 0 72.667 -0.666992 92 -2c0 56 -13.667 96 -41 120s-59.333 36 -96 36
c-102.667 0 -206.334 -21.333 -311.001 -64v267c118.667 47.333 230.667 71 336 71c150 0 266 -38.167 348 -114.5s123 -186.166 123 -329.499v-242c0 -126.667 -34.167 -219 -102.5 -277s-190.5 -87 -366.5 -87c-292 0 -438.333 105 -439 315zM459.002 361.998
c0 -72 32.668 -108 98.001 -108h2c32.667 0 58 13 76 39s27 53.333 27 82v86c-32.667 2.66699 -55.334 4 -68.001 4c-90 0 -135 -34.333 -135 -103z" />
    <glyph glyph-name="b" unicode="b" horiz-adv-x="1230" 
d="M160 348l-0.00195312 1065h350v-383c19.333 2.66699 63.666 4 132.999 4c148.667 0 263.334 -44.333 344.001 -133s121 -216.334 121 -383.001c0 -356 -167.333 -534 -502 -534h-2c-91.333 0 -167.666 10.167 -228.999 30.5s-106.666 49.333 -135.999 87
s-49.833 75.834 -61.5 114.501s-17.5 82.667 -17.5 132zM509.998 287c0 -19.333 8.83203 -36.501 26.499 -51.501s44.834 -22.5 81.501 -22.5c48 0 83 30 105 90s33 135.667 33 227c0 88.667 -15 158.334 -45 209.001s-74.333 76 -133 76c-12 0 -34.667 -1.33301 -68 -4
v-524z" />
    <glyph glyph-name="c" unicode="c" horiz-adv-x="993" 
d="M119 510c0 169.333 42 299.333 126 390s204.333 136 361 136c118.667 0 226 -23 322 -69v-262c-92.667 42 -178.667 63 -258 63c-60 0 -108.167 -21.5 -144.5 -64.5s-54.5 -107.5 -54.5 -193.5s18.167 -150.5 54.5 -193.5s84.5 -64.5 144.5 -64.5
c79.333 0 165.333 21 258 63v-262c-94 -46 -199.667 -69 -317 -69h-5c-157.333 0 -277.833 45.333 -361.5 136s-125.5 220.667 -125.5 390z" />
    <glyph glyph-name="d" unicode="d" horiz-adv-x="1222" 
d="M129 518c0 166.667 40.3311 294.334 120.998 383.001s195.334 133 344.001 133c69.333 0 113.666 -1.33301 132.999 -4v383h350v-1065c0 -49.333 -5.83301 -93.333 -17.5 -132s-32.167 -76.834 -61.5 -114.501s-74.666 -66.667 -135.999 -87
s-137.666 -30.5 -228.999 -30.5c-336 0 -504 178 -504 534zM480.998 530c0 -91.333 10.834 -167.001 32.501 -227.001s56.5 -90 104.5 -90c36.667 0 64 7.5 82 22.5s27 32.167 27 51.5v524c-32.667 2.66699 -55.334 4 -68.001 4c-58.667 0 -103 -25.167 -133 -75.5
s-45 -120.166 -45 -209.499z" />
    <glyph glyph-name="e" unicode="e" horiz-adv-x="1169" 
d="M131 502c0 162.667 37.833 292.668 113.5 390.001s194.167 146 355.5 146c152.667 0 268.334 -48 347.001 -144s118 -213.667 118 -353c0 -40.667 -2 -77.667 -6 -111h-582c0 -48 22.5 -88.333 67.5 -121s95.5 -49 151.5 -49c125.333 0 232.666 26.667 321.999 80v-248
c-110.667 -70.667 -244.667 -106 -402 -106c-45.333 0 -88.333 3.66699 -129 11s-83.5 22.666 -128.5 45.999s-83.5 53 -115.5 89s-58.667 85.833 -80 149.5s-32 137.167 -32 220.5zM485 641.001h230.004c-2.66699 39.333 -14.334 78.166 -35.001 116.499
s-47.334 57.5 -80.001 57.5s-59.334 -17.667 -80.001 -53s-32.334 -75.666 -35.001 -120.999z" />
    <glyph glyph-name="f" unicode="f" horiz-adv-x="776" 
d="M82 774l-0.00195312 248h145c0.666992 282.667 135.334 424 404.001 424c56 0 106.333 -7.66699 151 -23v-211c-19.333 5.33301 -37.666 8.33301 -54.999 9c-48 0 -84.5 -21.167 -109.5 -63.5s-37.5 -87.5 -37.5 -135.5h202v-248h-207v-774h-352v774h-141z" />
    <glyph glyph-name="g" unicode="g" horiz-adv-x="1153" 
d="M127 516c0 346.667 163.665 519.999 490.998 519.999c78 0 145.333 -10.167 202 -30.5s99.334 -48.333 128.001 -84s49.5 -73.167 62.5 -112.5s19.5 -83 19.5 -131v-637c0 -34 -3.33301 -68.167 -10 -102.5s-20.667 -72.666 -42 -114.999
s-48.666 -79.166 -81.999 -110.499s-79.666 -57.833 -138.999 -79.5s-127.333 -32.5 -204 -32.5c-104 0 -211.333 17.667 -322 53v250c76.667 -44 160.667 -66 252 -66c68 0 116.5 16 145.5 48s45.5 75.333 49.5 130c-35.333 -2.66699 -68 -4 -98 -4
c-140.667 0 -251.334 43.667 -332.001 131s-121 211.666 -121 372.999zM478.998 509.999c0 -84.667 13.332 -154.333 39.999 -209s63.334 -82 110.001 -82c16 0 33 2 51 6v490c0 53.333 -26.667 80 -80 80c-38 0 -67.667 -27 -89 -81s-32 -122 -32 -204z" />
    <glyph glyph-name="h" unicode="h" horiz-adv-x="1316" 
d="M207 0v1411h352v-387c49.333 8 107.333 12 174 12c142 0 253 -39.167 333 -117.5s120 -183.833 120 -316.5v-602h-352v657c0 75.333 -60.333 113 -181 113c-36.667 0 -68 -4.66699 -94 -14v-756h-352z" />
    <glyph glyph-name="i" unicode="i" horiz-adv-x="735" 
d="M193 1139v268h360v-268h-360zM197 0v1022h352v-1022h-352z" />
    <glyph glyph-name="j" unicode="j" horiz-adv-x="667" 
d="M6 -141c112 0 168.003 41.666 168.003 124.999v1038h352v-1008c0 -79.333 -13.333 -146.5 -40 -201.5s-64.834 -97.167 -114.501 -126.5s-103.834 -50.166 -162.501 -62.499s-126.334 -18.5 -203.001 -18.5v254zM170.003 1139v268h360v-268h-360z" />
    <glyph glyph-name="k" unicode="k" horiz-adv-x="1318" 
d="M178 0v1405h352v-631l215 248h451l-416 -451l461 -571h-426l-250 330l-35 -37v-293h-352z" />
    <glyph glyph-name="l" unicode="l" horiz-adv-x="761" 
d="M207 0v1411h352v-1411h-352z" />
    <glyph glyph-name="m" unicode="m" horiz-adv-x="1939" 
d="M203 0l0.00195312 930l14 6l42 16c17.333 6.66699 37.5 13.5 60.5 20.5s49.167 14.333 78.5 22s60.166 14.5 92.499 20.5s67.5 11 105.5 15s75.667 6 113 6c98 0 181 -19.667 249 -59c116.667 39.333 235 59 355 59c143.333 0 255.666 -36.833 336.999 -110.5
s122 -181.5 122 -323.5v-602h-353v616c0 105.333 -47 158 -141 158c-53.333 0 -100.333 -6.66699 -141 -20c17.333 -51.333 26 -100.333 26 -147v-5v-602h-352v621c0 99.333 -43.667 149 -131 149h-2c-36.667 0 -77.667 -6 -123 -18v-752h-352z" />
    <glyph glyph-name="n" unicode="n" horiz-adv-x="1325" 
d="M178 0l-0.000976562 912.998c164 82 333.333 123 508 123c144.667 0 259.334 -38.5 344.001 -115.5s127 -183.167 127 -318.5v-602h-352v657c0 20.667 -2.83301 37.834 -8.5 51.501s-21.667 27.334 -48 41.001s-64.833 20.5 -115.5 20.5c-36.667 0 -71 -4 -103 -12v-758
h-352z" />
    <glyph glyph-name="o" unicode="o" 
d="M92 510c0 169.333 42.667 299 128 389s206.5 135 363.5 135s278.167 -45 363.5 -135s128 -219.667 128 -389s-42.667 -299 -128 -389s-206.5 -135 -363.5 -135s-278.167 45 -363.5 135s-128 219.667 -128 389zM444 510c0 -180 46.5 -270 139.5 -270s139.5 90 139.5 270
s-46.5 270 -139.5 270s-139.5 -90 -139.5 -270z" />
    <glyph glyph-name="p" unicode="p" horiz-adv-x="1232" 
d="M170 -379l0.00195312 1051c0 49.333 5.83301 93.333 17.5 132s32.167 76.834 61.5 114.501s74.666 66.667 135.999 87s137.666 30.5 228.999 30.5c336 0 504 -178 504 -534c0 -166.667 -40.333 -294.334 -121 -383.001s-195.334 -133 -344.001 -133
c-69.333 0 -113.666 1.33301 -132.999 4v-369h-350zM520.002 209c32.667 -2.66699 55.333 -3.99902 68 -3.99902c58.667 0 103 25.167 133 75.5s45 119.833 45 208.5c0 91.333 -10.833 167.166 -32.5 227.499s-56.5 90.5 -104.5 90.5c-36.667 0 -64 -7.5 -82 -22.5
s-27 -32.167 -27 -51.5v-524z" />
    <glyph glyph-name="q" unicode="q" horiz-adv-x="1228" 
d="M115 502c0 356 167 533.999 501 533.999h2c91.333 0 167.833 -10.167 229.5 -30.5s107.167 -49.333 136.5 -87s49.833 -76 61.5 -115s17.5 -82.833 17.5 -131.5v-1051h-350v369c-19.333 -2.66699 -63.666 -4 -132.999 -4c-148.667 0 -263.334 44.333 -344.001 133
s-121 216.334 -121 383.001zM467 488.999c0 -88.667 15 -158.167 45 -208.5s74.333 -75.5 133 -75.5c12 0 34.667 1.33301 68 4v524c0 19.333 -9 36.5 -27 51.5s-45.333 22.5 -82 22.5c-48 0 -82.833 -30 -104.5 -90s-32.5 -136 -32.5 -228z" />
    <glyph glyph-name="r" unicode="r" horiz-adv-x="813" 
d="M164 0v921.999c176 72.667 370.667 111.334 584 116.001v-295c-84.667 -1.33301 -162 -7.33301 -232 -18v-725h-352z" />
    <glyph glyph-name="s" unicode="s" horiz-adv-x="962" 
d="M90 694c0 110.667 38.333 195.335 115 254.002s174.334 88 293.001 88c104 0 201.667 -28 293 -84v-233c-88.667 49.333 -167.334 74 -236.001 74c-74 0 -111 -23.333 -111 -70c0 -13.333 15.167 -26.833 45.5 -40.5s67 -29.167 110 -46.5s85.667 -37.833 128 -61.5
s78.5 -58.834 108.5 -105.501s45 -101.334 45 -164.001c0 -94 -37.667 -170.667 -113 -230s-173 -89 -293 -89c-126.667 0 -242 33.333 -346 100v272c106.667 -83.333 209.667 -125 309 -125c61.333 0 92 18.667 92 56c0 18 -15 34 -45 48s-66.5 29 -109.5 45
s-86.333 35.167 -130 57.5s-80.5 55.333 -110.5 99s-45 95.5 -45 155.5z" />
    <glyph glyph-name="t" unicode="t" horiz-adv-x="839" 
d="M49 786l0.000976562 236h139v303h353v-303h213v-236h-213v-495c0 -15.333 6.16699 -28.333 18.5 -39s27.166 -16 44.499 -16c42 0 92 17 150 51v-252c-58.667 -32.667 -127 -49 -205 -49c-118.667 0 -208.5 31.333 -269.5 94s-91.5 150.667 -91.5 264v442h-139z" />
    <glyph glyph-name="u" unicode="u" horiz-adv-x="1280" 
d="M172 461v561h352v-623c0 -100 40.667 -150 122 -150l1 1c82 0 123 49.667 123 149v623h352v-561c0 -316.667 -158.333 -475 -475 -475s-475 158.333 -475 475z" />
    <glyph glyph-name="v" unicode="v" horiz-adv-x="1224" 
d="M66 1022h374l170 -629l172 629h377l-391 -1022h-311z" />
    <glyph glyph-name="w" unicode="w" horiz-adv-x="1763" 
d="M82 1022h373l133 -616l162 616h262l162 -616l133 616h372l-362 -1022h-309l-127 459l-127 -459h-310z" />
    <glyph glyph-name="x" unicode="x" horiz-adv-x="1249" 
d="M53 0l363 518l-353 504h414l148 -207l145 207h389l-350 -479l387 -543h-416l-172 252l-166 -252h-389z" />
    <glyph glyph-name="y" unicode="y" horiz-adv-x="1169" 
d="M63 1022h365l156 -588l153 588h363l-373 -1002c-60 -154 -119 -263 -177 -327s-128.667 -96 -212 -96c-88.667 0 -163 14.333 -223 43v256c46.667 -16.667 91.667 -25 135 -25c31.333 0 62 18.833 92 56.5s56 94.5 78 170.5z" />
    <glyph glyph-name="z" unicode="z" horiz-adv-x="1030" 
d="M94 0v289l424 461h-414v272h805v-285l-381 -444h381v-293h-815z" />
    <glyph glyph-name="braceleft" unicode="{" horiz-adv-x="804" 
d="M186 485l-0.00195312 238.002c2.66699 0 6.5 0.666992 11.5 2s13.333 4.66602 25 9.99902s21.834 11.833 30.501 19.5s16.834 18.667 24.501 33s11.5 30.5 11.5 48.5v270c0 96.667 27 175.167 81 235.5s134.667 90.5 242 90.5h62v-236h-45
c-30 0 -52.833 -7.5 -68.5 -22.5s-24.667 -30 -27 -45s-3.5 -37.5 -3.5 -67.5v-238c0 -62.667 -18.667 -111.667 -56 -147s-83.333 -59.333 -138 -72c54.667 -12 100.667 -35.833 138 -71.5s56 -84.834 56 -147.501v-238c0 -30 1.16699 -52.5 3.5 -67.5s11.333 -30 27 -45
s38.5 -22.5 68.5 -22.5h45v-235h-62c-108 0 -188.833 30 -242.5 90s-80.5 138.333 -80.5 235v271c0 27.333 -8.5 50.5 -25.5 69.5s-33.833 31.167 -50.5 36.5z" />
    <glyph glyph-name="bar" unicode="|" horiz-adv-x="1005" 
d="M379 -203v1569h270v-1569h-270z" />
    <glyph glyph-name="braceright" unicode="}" horiz-adv-x="804" 
d="M156 12l45.002 -0.00585938c30 0 52.833 7.5 68.5 22.5s24.5 30 26.5 45s3 37.5 3 67.5v238c0 62.667 18.833 111.834 56.5 147.501s83.834 59.5 138.501 71.5c-54.667 12 -100.834 35.833 -138.501 71.5s-56.5 84.834 -56.5 147.501v238c0 30 -1 52.5 -3 67.5
s-10.833 30 -26.5 45s-38.5 22.5 -68.5 22.5h-45v236h61c108 0 189 -30.167 243 -90.5s81 -138.833 81 -235.5v-270c0 -27.333 8.5 -50.666 25.5 -69.999s34.167 -31.666 51.5 -36.999l25 -6v-238c-2.66699 0 -6.33398 -0.666992 -11.001 -2
s-12.834 -4.66602 -24.501 -9.99902s-22 -11.833 -31 -19.5s-17.167 -18.667 -24.5 -33s-11 -30.166 -11 -47.499v-271c0 -96.667 -27 -175 -81 -235s-135 -90 -243 -90h-61v235z" />
    <glyph glyph-name="asciitilde" unicode="~" horiz-adv-x="1071" 
d="M201 457l-0.000976562 186c38 45.333 81 70 129 74c7.33301 0.666992 15 1 23 1c39.333 0 78 -8.66699 116 -26l135 -60c38 -16.667 76.333 -25 115 -25c8 0 15.667 0.333008 23 1c47.333 4 90 28.667 128 74v-186c-38 -45.333 -80.667 -70 -128 -74
c-7.33301 -0.666992 -15 -1 -23 -1c-38.667 0 -77 8.33301 -115 25l-135 60c-37.333 17.333 -75.666 26 -114.999 26c-8 0 -16 -0.666992 -24 -2c-48 -4 -91 -28.333 -129 -73z" />
    <glyph glyph-name="exclamdown" unicode="&#xa1;" horiz-adv-x="882" 
d="M270 -344l45 975h265l45 -975h-355zM289 760v262h317v-262h-317z" />
    <glyph glyph-name="cent" unicode="&#xa2;" horiz-adv-x="1007" 
d="M117 682c0 169.333 42 299.335 126 390.002s204.333 136 361 136h29v158h131v-174c60 -10.667 114 -28.334 162 -53.001v-262c-60 28.667 -114 47 -162 55v-500c46.667 9.33301 100.667 27.666 162 54.999v-262c-49.333 -23.333 -103.333 -41 -162 -53v-172h-131v156h-29
c-157.333 0 -277.833 45.333 -361.5 136s-125.5 220.667 -125.5 390zM469 682.002c0 -76.667 15 -136.168 45 -178.501s69.667 -67.5 119 -75.5v510c-109.333 -19.333 -164 -104.666 -164 -255.999z" />
    <glyph glyph-name="sterling" unicode="&#xa3;" horiz-adv-x="1153" 
d="M100 -31v306.999c53.333 36.667 106 61.334 158 74.001v203h-158v268h158v168c0 108 35.167 200.5 105.5 277.5s179.833 115.5 328.5 115.5c108 0 223.333 -35.333 346 -106v-281c-94 79.333 -193.667 119 -299 119c-60 0 -108 -11.667 -144 -35s-54 -58 -54 -104v-154
h340v-268h-340v-211c78 -35.333 153.667 -53 227 -53c94 0 184 28.667 270 86v-297c-54.667 -50.667 -115 -80.667 -181 -90c-23.333 -4 -46.666 -6 -69.999 -6c-41.333 0 -82.333 5.66699 -123 17l-187 51c-40 11.333 -80.667 17 -122 17c-24 0 -48.333 -1.66699 -73 -5
c-66.667 -10 -127.334 -41 -182.001 -93z" />
    <glyph glyph-name="yen" unicode="&#xa5;" horiz-adv-x="1492" 
d="M37 1366h428l291 -520l291 520h428l-408 -594h137v-201h-272v-155h272v-201h-272v-215h-352v215h-273v201h273v155h-273v201h137z" />
    <glyph glyph-name="section" unicode="&#xa7;" horiz-adv-x="1247" 
d="M127 707c0 65.333 30.334 113.67 91.001 145.003s124.667 47.666 192 48.999c-28.667 2.66699 -60.5 22.834 -95.5 60.501s-52.5 78.167 -52.5 121.5c0 57.333 13 106.833 39 148.5s61.5 73.167 106.5 94.5s92.167 36.333 141.5 45s102.666 13 159.999 13
c120 0 240.667 -34.667 362 -104v-248c-106.667 61.333 -210.334 92 -311.001 92c-113.333 0 -170 -26.667 -170 -80c0 -20.667 28 -41.834 84 -63.501s117.333 -42.334 184 -62.001s128 -53.167 184 -100.5s84 -104.333 84 -171c0 -40.667 -16 -74 -48 -100
s-63.333 -42.833 -94 -50.5s-61.667 -12.167 -93 -13.5c32.667 -18 57.5 -47 74.5 -87s25.5 -80.667 25.5 -122c0 -91.333 -39.833 -162.5 -119.5 -213.5s-189.167 -76.5 -328.5 -76.5c-142 0 -278.667 43.667 -410 131v276c114 -102 234.333 -153 361 -153h2
c44 0 84 5.66699 120 17s54 30.666 54 57.999c0 18 -18.833 34.5 -56.5 49.5s-83.167 30.333 -136.5 46s-106.166 34.5 -158.499 56.5s-97.333 53.833 -135 95.5s-56.5 90.5 -56.5 146.5zM453.001 715.004c0 -12 19.333 -26.333 58 -43s108.667 -42 210 -76
c52 9.33301 78 24.333 78 45c0 12 -16.5 24.833 -49.5 38.5s-74 28 -123 43s-78.833 24.833 -89.5 29.5c-56 -6.66699 -84 -19 -84 -37z" />
    <glyph glyph-name="dieresis" unicode="&#xa8;" horiz-adv-x="899" 
d="M141 1139v223h246v-223h-246zM489 1139v223h246v-223h-246z" />
    <glyph glyph-name="copyright" unicode="&#xa9;" horiz-adv-x="1593" 
d="M98 682c0 194 68.333 359.167 205 495.5s301.334 204.5 494.001 204.5c194 0 359.167 -68.167 495.5 -204.5s204.5 -301.5 204.5 -495.5c0 -192.667 -68.333 -357.167 -205 -493.5s-301.667 -204.5 -495 -204.5c-192.667 0 -357.334 68.167 -494.001 204.5
s-205 300.833 -205 493.5zM227 682c0 -157.333 55.666 -291.5 166.999 -402.5s245.5 -166.5 402.5 -166.5s291.5 55.5 403.5 166.5s168 245.167 168 402.5c0 158.667 -55.667 293.5 -167 404.5s-246 166.5 -404 166.5c-157.333 0 -291.666 -55.5 -402.999 -166.5
s-167 -245.833 -167 -404.5zM429.999 684c0 80.667 11.333 149.332 34 205.999s53 98.667 91 126s77.167 46.833 117.5 58.5s84.5 17.5 132.5 17.5c78 0 164 -18.667 258 -56v-178c-82 38 -164 57 -246 57c-120 0 -180 -77 -180 -231s60 -231 180 -231c82 0 164 19 246 57
v-178c-92.667 -38 -178.667 -57.333 -258 -58c-48 0 -92.167 5.83301 -132.5 17.5s-79.5 31.5 -117.5 59.5s-68.333 70.333 -91 127s-34 125.334 -34 206.001z" />
    <glyph glyph-name="ordfeminine" unicode="&#xaa;" horiz-adv-x="833" 
d="M162 1018c5.33301 16 15.833 34.334 31.5 55.001s42 37.5 79 50.5s82.833 19.5 137.5 19.5h51c0 57.333 -26 86 -78 86c-53.333 0 -111.333 -11.667 -174 -35v147c68 27.333 130.667 41 188 41c83.333 0 148.333 -21.5 195 -64.5s70 -103.833 70 -182.5v-136
c0 -70.667 -19.167 -122.334 -57.5 -155.001s-106.833 -49 -205.5 -49c-163.333 0 -245 58.333 -245 175c0 16 2.66699 32 8 48zM350 1006c0 -40.667 19.332 -61.333 57.999 -62c18 0 32 7.5 42 22.5s15 30.167 15 45.5v49c-5.33301 0 -12.166 0.333008 -20.499 1
s-14.5 1 -18.5 1c-50.667 0 -76 -19 -76 -57z" />
    <glyph glyph-name="guillemotleft" unicode="&#xab;" horiz-adv-x="1347" 
d="M70 522l346 389h338l-373 -389l373 -391h-338zM565 522l346 389h338l-372 -389l372 -391h-338z" />
    <glyph glyph-name="logicalnot" unicode="&#xac;" horiz-adv-x="1300" 
d="M199 465v219h903v-389h-211v170h-692z" />
    <glyph glyph-name="registered" unicode="&#xae;" horiz-adv-x="1593" 
d="M100 682c0 194 68.333 359.167 205 495.5s301.334 204.5 494.001 204.5c194 0 359.167 -68.167 495.5 -204.5s204.5 -301.5 204.5 -495.5c0 -192.667 -68.167 -357.167 -204.5 -493.5s-301.5 -204.5 -495.5 -204.5c-192.667 0 -357.334 68.167 -494.001 204.5
s-205 300.833 -205 493.5zM229 682c0 -157.333 55.666 -291.5 166.999 -402.5s245.5 -166.5 402.5 -166.5s291.5 55.5 403.5 166.5s168 245.167 168 402.5c0 158.667 -55.667 293.5 -167 404.5s-246 166.5 -404 166.5c-157.333 0 -291.666 -55.5 -402.999 -166.5
s-167 -245.833 -167 -404.5zM497.999 285l-0.000976562 796.001h315c96.667 0 174.5 -22.5 233.5 -67.5s88.5 -108.5 88.5 -190.5c0 -62.667 -14.667 -114.334 -44 -155.001s-68.666 -68.667 -117.999 -84l192 -299h-229l-148 266h-83v-266h-207zM704.998 707.001h120
c27.333 0 51.333 9.5 72 28.5s31 43.5 31 73.5c0 31.333 -10.333 56.833 -31 76.5s-44.667 29.5 -72 29.5h-120v-208z" />
    <glyph glyph-name="macron" unicode="&#xaf;" horiz-adv-x="825" 
d="M176 1139v180h479v-180h-479z" />
    <glyph glyph-name="degree" unicode="&#xb0;" horiz-adv-x="792" 
d="M168 1143c0 74 19.167 130.333 57.5 169s93.666 58 165.999 58s127.5 -19.5 165.5 -58.5s57 -95.167 57 -168.5c0 -72.667 -19 -128.334 -57 -167.001s-93.167 -58 -165.5 -58s-127.666 19.333 -165.999 58s-57.5 94.334 -57.5 167.001zM293 1145
c0 -38 7.83301 -65.666 23.5 -82.999s40.5 -26 74.5 -26s58.5 8.5 73.5 25.5s22.5 44.667 22.5 83s-7.5 65.666 -22.5 81.999s-39.5 24.5 -73.5 24.5c-65.333 0 -98 -35.333 -98 -106z" />
    <glyph glyph-name="plusminus" unicode="&#xb1;" horiz-adv-x="1198" 
d="M236 12v215h743v-215h-743zM236 608v230h258v258h229v-258h256v-230h-256v-256h-229v256h-258z" />
    <glyph glyph-name="uni00B2" unicode="&#xb2;" horiz-adv-x="696" 
d="M102 948l-0.00195312 150c207.333 154 311.333 269.333 312 346c0 49.333 -32.333 74 -97 74c-65.333 0 -135.666 -30.333 -210.999 -91v193c80.667 49.333 157.334 74 230.001 74c91.333 0 158.5 -23 201.5 -69s64.5 -101.667 64.5 -167
c0 -102.667 -70.333 -216 -211 -340h215v-170h-504z" />
    <glyph glyph-name="uni00B3" unicode="&#xb3;" horiz-adv-x="686" 
d="M100 999l-0.00292969 183c80.667 -49.333 152.334 -74 215.001 -74c32.667 0 59 7.16699 79 21.5s30 32.5 30 54.5c0 54.667 -37 82 -111 82h-120v135h122c50.667 0 76 20.333 76 61c0 18 -9.83301 31.833 -29.5 41.5s-41.834 14.5 -66.501 14.5
c-65.333 0 -125.333 -13 -180 -39v159c66.667 35.333 133.334 53.333 200.001 54c70.667 0 132.834 -15.833 186.501 -47.5s80.5 -83.5 80.5 -155.5c0 -34 -12 -65 -36 -93s-50.333 -44.667 -79 -50c44 -12 79.167 -35.5 105.5 -70.5s39.5 -75.833 39.5 -122.5
c0 -79.333 -28.667 -135 -86 -167s-124.666 -48 -201.999 -48c-64 0 -138.667 20.333 -224 61z" />
    <glyph glyph-name="acute" unicode="&#xb4;" horiz-adv-x="559" 
d="M121 1139l127 239h239l-190 -239h-176z" />
    <glyph glyph-name="uni00B5" unicode="&#xb5;" horiz-adv-x="1325" 
d="M203 -430l-0.000976562 1452h352v-657c0 -20.667 2.66699 -37.834 8 -51.501s21.333 -27.334 48 -41.001s65.334 -20.5 116.001 -20.5c36.667 0 70.667 4 102 12v758h353v-913c-164 -82 -333.333 -123 -508 -123c-38 0 -77.667 3.33301 -119 10v-426h-352z" />
    <glyph glyph-name="paragraph" unicode="&#xb6;" horiz-adv-x="1083" 
d="M80 870c0 160 47.833 282.667 143.5 368s233.5 128 413.5 128h354v-1366h-274v371h-80c-180 0 -317.833 43 -413.5 129s-143.5 209.333 -143.5 370z" />
    <glyph glyph-name="periodcentered" unicode="&#xb7;" horiz-adv-x="741" 
d="M215 420v282h295v-282h-295z" />
    <glyph glyph-name="cedilla" unicode="&#xb8;" horiz-adv-x="585" 
d="M106 -250l191 240h176l-127 -240h-240z" />
    <glyph glyph-name="uni00B9" unicode="&#xb9;" horiz-adv-x="512" 
d="M92 1401v186l154 96h155v-735h-190v525z" />
    <glyph glyph-name="ordmasculine" unicode="&#xba;" horiz-adv-x="868" 
d="M152 1090c0 95.333 23.833 168.166 71.5 218.499s115.834 75.5 204.501 75.5c87.333 0 154.833 -25.167 202.5 -75.5s71.5 -123.166 71.5 -218.499c0 -94 -23.833 -166.333 -71.5 -217s-115.167 -76 -202.5 -76c-88.667 0 -156.834 25.167 -204.501 75.5
s-71.5 122.833 -71.5 217.5zM348 1090c0 -100 26.667 -150 80 -150c52 0 78 50 78 150c0 100.667 -25.667 151 -77 151h-1c-53.333 0 -80 -50.333 -80 -151z" />
    <glyph glyph-name="guillemotright" unicode="&#xbb;" horiz-adv-x="1374" 
d="M106 131l373 391l-373 389h338l347 -389l-347 -391h-338zM602 131l373 391l-373 389h338l346 -389l-346 -391h-338z" />
    <glyph glyph-name="onequarter" unicode="&#xbc;" horiz-adv-x="1476" 
d="M92 1098v186l154 96h155v-735h-190v524zM170 -45l895 1448h192l-895 -1448h-192zM840 186v146l321 403h166v-387h88v-162h-88v-186h-188v186h-299zM1040 348h99v129z" />
    <glyph glyph-name="onehalf" unicode="&#xbd;" horiz-adv-x="1550" 
d="M92 1098v186l154 96h155v-735h-190v524zM170 -45l895 1448h192l-895 -1448h-192zM946 0l-0.000976562 150c207.333 154 311 269.333 311 346c0 48.667 -31 73 -93 73h-3c-65.333 0 -135.666 -30 -210.999 -90v193c79.333 48.667 155 73 227 73h3
c91.333 0 158.5 -22.833 201.5 -68.5s64.5 -101.167 64.5 -166.5c0 -102.667 -70.333 -216 -211 -340h215v-170h-504z" />
    <glyph glyph-name="threequarters" unicode="&#xbe;" horiz-adv-x="1757" 
d="M137 696v183c80.667 -49.333 152.334 -74 215.001 -74c32.667 0 59 7.16699 79 21.5s30 32.5 30 54.5c0 54.667 -37 82 -111 82h-121v135h123c50.667 0 76 20.333 76 61c0 18 -9.83301 31.667 -29.5 41s-41.834 14 -66.501 14c-65.333 0 -125.333 -12.667 -180 -38v159
c66.667 35.333 133.334 53.333 200.001 54c70.667 0 132.667 -15.833 186 -47.5s80 -83.5 80 -155.5c0 -34 -11.833 -65.167 -35.5 -93.5s-49.834 -45.166 -78.501 -50.499c44 -12 79.167 -35.333 105.5 -70s39.5 -75.334 39.5 -122.001c0 -79.333 -28.667 -135 -86 -167
s-125 -48 -203 -48c-64 0 -138.333 20.333 -223 61zM387 -45l895 1448h193l-895 -1448h-193zM1067 186v146l322 403h165v-387h88v-162h-88v-186h-188v186h-299zM1268 348h98v129z" />
    <glyph glyph-name="questiondown" unicode="&#xbf;" horiz-adv-x="1075" 
d="M164 37c0 46.667 7.5 88.6631 22.5 125.996s33.667 68 56 92s46.5 48.667 72.5 74l73 73c22.667 22.667 41.5 51.834 56.5 87.501s22.5 75.167 22.5 118.5v21h281v-27c0 -69.333 -10.333 -130.666 -31 -183.999s-45.667 -95.666 -75 -126.999s-59 -60 -89 -86
s-55.333 -53 -76 -81s-31 -57.667 -31 -89c0 -30 5.16699 -55.333 15.5 -76s25.833 -35 46.5 -43s40.167 -13.333 58.5 -16s40.5 -4 66.5 -4c120 0 222.333 34 307 102v-262c-39.333 -27.333 -91.166 -50.166 -155.499 -68.499s-129.833 -27.5 -196.5 -27.5
c-76.667 0 -143.334 11.167 -200.001 33.5s-100.667 53 -132 92s-54.5 81 -69.5 126s-22.5 93.5 -22.5 145.5zM449 759.996v262h317v-262h-317z" />
    <glyph glyph-name="Agrave" unicode="&#xc0;" horiz-adv-x="1503" 
d="M43 0l543 1366h332l542 -1366h-379l-106 328h-447l-106 -328h-379zM477 1722h240l127 -239h-176zM612 588h277l-137 424z" />
    <glyph glyph-name="Aacute" unicode="&#xc1;" horiz-adv-x="1503" 
d="M43 0l543 1366h332l542 -1366h-379l-106 328h-447l-106 -328h-379zM612 588h277l-137 424zM659 1483l127 239h240l-190 -239h-177z" />
    <glyph glyph-name="Acircumflex" unicode="&#xc2;" horiz-adv-x="1503" 
d="M43 0l543 1366h332l542 -1366h-379l-106 328h-447l-106 -328h-379zM457 1483l245 250h99l246 -250h-209l-86 90l-86 -90h-209zM612 588h277l-137 424z" />
    <glyph glyph-name="Atilde" unicode="&#xc3;" horiz-adv-x="1503" 
d="M43 0l543 1366h332l542 -1366h-379l-106 328h-447l-106 -328h-379zM440 1497v174c38 45.333 79.333 70 124 74c7.33301 0.666992 14.666 1 21.999 1c36.667 0 72 -8.66699 106 -26l121 -60c34 -16.667 69 -25 105 -25c7.33301 0 14.666 0.333008 21.999 1
c44 4 85 28.667 123 74v-174c-38 -45.333 -79 -70 -123 -74c-7.33301 -0.666992 -14.666 -1 -21.999 -1c-36 0 -71 8.33301 -105 25l-121 60c-34 17.333 -69.333 26 -106 26c-7.33301 0 -14.666 -0.333008 -21.999 -1c-44 -4 -85.333 -28.667 -124 -74zM612 588h277
l-137 424z" />
    <glyph glyph-name="Adieresis" unicode="&#xc4;" horiz-adv-x="1503" 
d="M43 0l543 1366h332l542 -1366h-379l-106 328h-447l-106 -328h-379zM455 1483v223h245v-223h-245zM612 588h277l-137 424zM803 1483v223h246v-223h-246z" />
    <glyph glyph-name="Aring" unicode="&#xc5;" horiz-adv-x="1503" 
d="M43 0l543 1366h332l542 -1366h-379l-106 328h-447l-106 -328h-379zM573 1618c0 56 15.833 99.333 47.5 130s75.5 46 131.5 46c57.333 0 101.333 -15.333 132 -46s46 -74 46 -130s-15.333 -99.333 -46 -130s-74.667 -46 -132 -46c-56 0 -99.833 15.333 -131.5 46
s-47.5 74 -47.5 130zM612 588h277l-137 424zM700 1618c0 -24.667 3.83301 -41.5 11.5 -50.5s21 -13.5 40 -13.5s32.333 4.5 40 13.5s11.5 25.833 11.5 50.5c0 42 -17.167 63 -51.5 63s-51.5 -21 -51.5 -63z" />
    <glyph glyph-name="AE" unicode="&#xc6;" horiz-adv-x="2217" 
d="M51 0l961 1366h1065v-287h-600v-252h520v-288h-520v-250h600v-289h-953v246h-469l-168 -246h-436zM831 504h293v428z" />
    <glyph glyph-name="Ccedilla" unicode="&#xc7;" horiz-adv-x="1314" 
d="M125 684c0 138 19.1709 255.166 57.5039 351.499s90.166 168.333 155.499 216s132.5 81.334 201.5 101.001s144.5 29.5 226.5 29.5c131.333 0 277.333 -32 438 -96v-305c-136.667 65.333 -276 98 -418 98c-94 0 -169 -28.667 -225 -86s-84 -160.333 -84 -309
s28 -251.667 84 -309s131 -86 225 -86c142 0 281.333 32.667 418 98v-305c-130 -52 -248.667 -82.667 -356 -92l-125 -240h-240l189 240c-72.667 6.66699 -139.334 22.667 -200.001 48s-118.334 62.833 -173.001 112.5s-97.334 120 -128.001 211s-46 198.5 -46 322.5z" />
    <glyph glyph-name="Egrave" unicode="&#xc8;" horiz-adv-x="1247" 
d="M178 0v1366h952v-287h-600v-252h521v-288h-521v-250h600v-289h-952zM424 1722h240l127 -239h-177z" />
    <glyph glyph-name="Eacute" unicode="&#xc9;" horiz-adv-x="1247" 
d="M178 0v1366h952v-287h-600v-252h521v-288h-521v-250h600v-289h-952zM561 1483l127 239h240l-191 -239h-176z" />
    <glyph glyph-name="Ecircumflex" unicode="&#xca;" horiz-adv-x="1247" 
d="M178 0v1366h952v-287h-600v-252h521v-288h-521v-250h600v-289h-952zM375 1483l246 250h98l246 -250h-209l-86 90l-86 -90h-209z" />
    <glyph glyph-name="Edieresis" unicode="&#xcb;" horiz-adv-x="1247" 
d="M178 0v1366h952v-287h-600v-252h521v-288h-521v-250h600v-289h-952zM383 1483v223h246v-223h-246zM731 1483v223h246v-223h-246z" />
    <glyph glyph-name="Igrave" unicode="&#xcc;" horiz-adv-x="708" 
d="M76 1722h239l127 -239h-176zM180 0h352v1366h-352v-1366z" />
    <glyph glyph-name="Iacute" unicode="&#xcd;" horiz-adv-x="708" 
d="M180 0h352v1366h-352v-1366zM270 1483l127 239h240l-191 -239h-176z" />
    <glyph glyph-name="Icircumflex" unicode="&#xce;" horiz-adv-x="708" 
d="M61 1483l246 250h99l245 -250h-209l-86 90l-86 -90h-209zM180 0h352v1366h-352v-1366z" />
    <glyph glyph-name="Idieresis" unicode="&#xcf;" horiz-adv-x="708" 
d="M59 1483v223h246v-223h-246zM180 0h352v1366h-352v-1366zM408 1483v223h245v-223h-245z" />
    <glyph glyph-name="Eth" unicode="&#xd0;" horiz-adv-x="1527" 
d="M106 582v200h166v584h492c211.333 0 372.333 -58 483 -174s166 -286 166 -510c0 -222.667 -55.333 -392 -166 -508s-271.667 -174 -483 -174h-492v582h-166zM625 289h139c198 0 297 131 297 393c0 264.667 -99 397 -297 397h-139v-297h217v-200h-217v-293z" />
    <glyph glyph-name="Ntilde" unicode="&#xd1;" horiz-adv-x="1619" 
d="M178 0v1366h352l555 -819v819h353v-1366h-348l-560 813v-813h-352zM510 1497v174c38 45.333 79.333 70 124 74c6.66699 0.666992 13.667 1 21 1c36.667 0 71.667 -8.66699 105 -26l122 -60c34.667 -16.667 70 -25 106 -25c7.33301 0 14.666 0.333008 21.999 1
c43.333 4 84.333 28.667 123 74v-174c-38 -45.333 -79 -70 -123 -74c-7.33301 -0.666992 -14.666 -1 -21.999 -1c-36 0 -71.333 8.33301 -106 25l-122 60c-33.333 17.333 -68.333 26 -105 26c-7.33301 0 -14.333 -0.333008 -21 -1c-44.667 -4 -86 -28.667 -124 -74z" />
    <glyph glyph-name="Ograve" unicode="&#xd2;" horiz-adv-x="1538" 
d="M125 684c0 110.667 13 208.334 39 293.001s59.833 151.834 101.5 201.501s91.5 90.334 149.5 122.001s115 52.834 171 63.501s116 16 180 16s124 -5.33301 180 -16s113 -31.834 171 -63.501s107.833 -72.334 149.5 -122.001s75.5 -116.834 101.5 -201.501
s39 -182.334 39 -293.001s-13 -208.334 -39 -293.001s-59.833 -151.834 -101.5 -201.501s-91.5 -90.334 -149.5 -122.001s-115 -52.834 -171 -63.501s-116 -16 -180 -16s-124 5.33301 -180 16s-113 31.834 -171 63.501s-107.833 72.334 -149.5 122.001
s-75.5 116.834 -101.5 201.501s-39 182.334 -39 293.001zM477 684c0 -148.667 26.333 -251.667 79 -309s122.667 -86 210 -86s157.333 28.667 210 86s79 160.333 79 309s-26.333 251.667 -79 309s-122.667 86 -210 86s-157.333 -28.667 -210 -86s-79 -160.333 -79 -309z
M500 1722h239l127 -239h-176z" />
    <glyph glyph-name="Oacute" unicode="&#xd3;" horiz-adv-x="1538" 
d="M125 684c0 110.667 13 208.334 39 293.001s59.833 151.834 101.5 201.501s91.5 90.334 149.5 122.001s115 52.834 171 63.501s116 16 180 16s124 -5.33301 180 -16s113 -31.834 171 -63.501s107.833 -72.334 149.5 -122.001s75.5 -116.834 101.5 -201.501
s39 -182.334 39 -293.001s-13 -208.334 -39 -293.001s-59.833 -151.834 -101.5 -201.501s-91.5 -90.334 -149.5 -122.001s-115 -52.834 -171 -63.501s-116 -16 -180 -16s-124 5.33301 -180 16s-113 31.834 -171 63.501s-107.833 72.334 -149.5 122.001
s-75.5 116.834 -101.5 201.501s-39 182.334 -39 293.001zM477 684c0 -148.667 26.333 -251.667 79 -309s122.667 -86 210 -86s157.333 28.667 210 86s79 160.333 79 309s-26.333 251.667 -79 309s-122.667 86 -210 86s-157.333 -28.667 -210 -86s-79 -160.333 -79 -309z
M666 1483l127 239h239l-190 -239h-176z" />
    <glyph glyph-name="Ocircumflex" unicode="&#xd4;" horiz-adv-x="1538" 
d="M125 684c0 110.667 13 208.334 39 293.001s59.833 151.834 101.5 201.501s91.5 90.334 149.5 122.001s115 52.834 171 63.501s116 16 180 16s124 -5.33301 180 -16s113 -31.834 171 -63.501s107.833 -72.334 149.5 -122.001s75.5 -116.834 101.5 -201.501
s39 -182.334 39 -293.001s-13 -208.334 -39 -293.001s-59.833 -151.834 -101.5 -201.501s-91.5 -90.334 -149.5 -122.001s-115 -52.834 -171 -63.501s-116 -16 -180 -16s-124 5.33301 -180 16s-113 31.834 -171 63.501s-107.833 72.334 -149.5 122.001
s-75.5 116.834 -101.5 201.501s-39 182.334 -39 293.001zM471 1483l246 250h98l246 -250h-209l-86 90l-86 -90h-209zM477 684c0 -148.667 26.333 -251.667 79 -309s122.667 -86 210 -86s157.333 28.667 210 86s79 160.333 79 309s-26.333 251.667 -79 309
s-122.667 86 -210 86s-157.333 -28.667 -210 -86s-79 -160.333 -79 -309z" />
    <glyph glyph-name="Otilde" unicode="&#xd5;" horiz-adv-x="1538" 
d="M125 684c0 110.667 13 208.334 39 293.001s59.833 151.834 101.5 201.501s91.5 90.334 149.5 122.001s115 52.834 171 63.501s116 16 180 16s124 -5.33301 180 -16s113 -31.834 171 -63.501s107.833 -72.334 149.5 -122.001s75.5 -116.834 101.5 -201.501
s39 -182.334 39 -293.001s-13 -208.334 -39 -293.001s-59.833 -151.834 -101.5 -201.501s-91.5 -90.334 -149.5 -122.001s-115 -52.834 -171 -63.501s-116 -16 -180 -16s-124 5.33301 -180 16s-113 31.834 -171 63.501s-107.833 72.334 -149.5 122.001
s-75.5 116.834 -101.5 201.501s-39 182.334 -39 293.001zM459 1497v174c38 45.333 79 70 123 74c7.33301 0.666992 14.666 1 21.999 1c36.667 0 72 -8.66699 106 -26l122 -60c34 -16.667 69 -25 105 -25c7.33301 0 14.333 0.333008 21 1c44 4 85 28.667 123 74v-174
c-38 -45.333 -79 -70 -123 -74c-6.66699 -0.666992 -13.667 -1 -21 -1c-36 0 -71 8.33301 -105 25l-122 60c-34 17.333 -69.333 26 -106 26c-7.33301 0 -14.666 -0.333008 -21.999 -1c-44 -4 -85 -28.667 -123 -74zM477 684c0 -148.667 26.333 -251.667 79 -309
s122.667 -86 210 -86s157.333 28.667 210 86s79 160.333 79 309s-26.333 251.667 -79 309s-122.667 86 -210 86s-157.333 -28.667 -210 -86s-79 -160.333 -79 -309z" />
    <glyph glyph-name="Odieresis" unicode="&#xd6;" horiz-adv-x="1538" 
d="M125 684c0 110.667 13 208.334 39 293.001s59.833 151.834 101.5 201.501s91.5 90.334 149.5 122.001s115 52.834 171 63.501s116 16 180 16s124 -5.33301 180 -16s113 -31.834 171 -63.501s107.833 -72.334 149.5 -122.001s75.5 -116.834 101.5 -201.501
s39 -182.334 39 -293.001s-13 -208.334 -39 -293.001s-59.833 -151.834 -101.5 -201.501s-91.5 -90.334 -149.5 -122.001s-115 -52.834 -171 -63.501s-116 -16 -180 -16s-124 5.33301 -180 16s-113 31.834 -171 63.501s-107.833 72.334 -149.5 122.001
s-75.5 116.834 -101.5 201.501s-39 182.334 -39 293.001zM469 1483v223h246v-223h-246zM477 684c0 -148.667 26.333 -251.667 79 -309s122.667 -86 210 -86s157.333 28.667 210 86s79 160.333 79 309s-26.333 251.667 -79 309s-122.667 86 -210 86
s-157.333 -28.667 -210 -86s-79 -160.333 -79 -309zM817 1483v223h246v-223h-246z" />
    <glyph glyph-name="multiply" unicode="&#xd7;" horiz-adv-x="1093" 
d="M147 154l287 370l-284 371h225l174 -223l176 223h223l-284 -371l284 -370h-223l-176 223l-174 -223h-228z" />
    <glyph glyph-name="Oslash" unicode="&#xd8;" horiz-adv-x="1529" 
d="M14 0l211 246c-66.667 112 -100 257.333 -100 436c0 110.667 13 208.334 39 293.001s59.833 151.834 101.5 201.501s91.5 90.334 149.5 122.001s115 52.834 171 63.501s116 16 180 16c143.333 0 263.333 -28 360 -84l62 72h328l-211 -246c68 -112 102 -258 102 -438
c0 -110.667 -13 -208.334 -39 -293.001s-59.833 -151.834 -101.5 -201.501s-91.5 -90.334 -149.5 -122.001s-115 -52.834 -171 -63.501s-116 -16 -180 -16c-144.667 0 -265.667 28.667 -363 86l-61 -72h-328zM477 682c0 -54.667 2.66699 -99 8 -133l426 495
c-38 22 -86.333 33 -145 33c-87.333 0 -157.333 -28.667 -210 -86s-79 -160.333 -79 -309zM618 319c36.667 -21.333 84.333 -32 143 -32h5c87.333 0 157.333 28.667 210 86s79 160.333 79 309c0 46.667 -3.66699 91.667 -11 135z" />
    <glyph glyph-name="Ugrave" unicode="&#xd9;" horiz-adv-x="1533" 
d="M178 588v778h352v-819c0 -87.333 18.833 -152.166 56.5 -194.499s96.167 -63.5 175.5 -63.5s137.666 21.167 174.999 63.5s56 107.166 56 194.499v819h353v-778c0 -191.333 -51.333 -339.5 -154 -444.5s-246.167 -157.5 -430.5 -157.5s-327.666 52.5 -429.999 157.5
s-153.5 253.167 -153.5 444.5zM506 1722h239l127 -239h-176z" />
    <glyph glyph-name="Uacute" unicode="&#xda;" horiz-adv-x="1533" 
d="M178 588v778h352v-819c0 -87.333 18.833 -152.166 56.5 -194.499s96.167 -63.5 175.5 -63.5s137.666 21.167 174.999 63.5s56 107.166 56 194.499v819h353v-778c0 -191.333 -51.333 -339.5 -154 -444.5s-246.167 -157.5 -430.5 -157.5s-327.666 52.5 -429.999 157.5
s-153.5 253.167 -153.5 444.5zM651 1483l127 239h240l-191 -239h-176z" />
    <glyph glyph-name="Ucircumflex" unicode="&#xdb;" horiz-adv-x="1533" 
d="M178 588v778h352v-819c0 -87.333 18.833 -152.166 56.5 -194.499s96.167 -63.5 175.5 -63.5s137.666 21.167 174.999 63.5s56 107.166 56 194.499v819h353v-778c0 -191.333 -51.333 -339.5 -154 -444.5s-246.167 -157.5 -430.5 -157.5s-327.666 52.5 -429.999 157.5
s-153.5 253.167 -153.5 444.5zM467 1483l246 250h98l246 -250h-209l-86 90l-86 -90h-209z" />
    <glyph glyph-name="Udieresis" unicode="&#xdc;" horiz-adv-x="1533" 
d="M178 588v778h352v-819c0 -87.333 18.833 -152.166 56.5 -194.499s96.167 -63.5 175.5 -63.5s137.666 21.167 174.999 63.5s56 107.166 56 194.499v819h353v-778c0 -191.333 -51.333 -339.5 -154 -444.5s-246.167 -157.5 -430.5 -157.5s-327.666 52.5 -429.999 157.5
s-153.5 253.167 -153.5 444.5zM465 1483v223h246v-223h-246zM813 1483v223h246v-223h-246z" />
    <glyph glyph-name="Yacute" unicode="&#xdd;" horiz-adv-x="1492" 
d="M25 1366h428l290 -520l291 520h428l-542 -791v-575h-353v575zM635 1483l127 239h239l-190 -239h-176z" />
    <glyph glyph-name="Thorn" unicode="&#xde;" horiz-adv-x="1337" 
d="M176 0l0.00195312 1366h352v-203h177c165.333 0 293.666 -42 384.999 -126s137 -201.667 137 -353c0 -152.667 -45.833 -271 -137.5 -355s-219.834 -126 -384.501 -126h-177v-203h-352zM528.002 494h144c70.667 0 122.5 18.667 155.5 56s49.5 82 49.5 134
c0 50.667 -16.5 95.5 -49.5 134.5s-84.833 58.5 -155.5 58.5h-144v-383z" />
    <glyph glyph-name="germandbls" unicode="&#xdf;" horiz-adv-x="1282" 
d="M180 0l0.00390625 845.997c0 106.667 13.667 197.167 41 271.5s64.166 129.833 110.499 166.5s94.166 62.5 143.499 77.5s103.333 22.5 162 22.5c157.333 0 276.5 -36.5 357.5 -109.5s121.5 -161.833 121.5 -266.5c0 -70.667 -20 -133.167 -60 -187.5
s-83.333 -88.166 -130 -101.499c166.667 -49.333 250 -153.666 250 -312.999c0 -147.333 -55.667 -253.333 -167 -318c-99.333 -58 -229.666 -87 -390.999 -87c-20 0 -40.333 0.333008 -61 1v256h12c82.667 0 155 12.667 217 38c64.667 26.667 97 71.334 97 134.001
c0 34 -10.667 62 -32 84s-51.833 37.667 -91.5 47s-73.167 15.833 -100.5 19.5s-61.333 6.16699 -102 7.5v233c28.667 0 56.667 2.16699 84 6.5s56.666 11.5 87.999 21.5s56.166 26 74.499 48s27.5 49.333 27.5 82c0 108 -55.667 162 -167 162
c-126.667 0 -190.334 -89 -191.001 -267v-874h-293z" />
    <glyph glyph-name="agrave" unicode="&#xe0;" horiz-adv-x="1128" 
d="M106 301c0 20.667 2.50195 41.832 7.50195 63.499s16.667 47.834 35 78.501s42.5 57.667 72.5 81s74.667 43.166 134 59.499s128.666 24.5 207.999 24.5c42 0 72.667 -0.666992 92 -2c0 56 -13.667 96 -41 120s-59.333 36 -96 36
c-102.667 0 -206.334 -21.333 -311.001 -64v267c118.667 47.333 230.667 71 336 71c150 0 266 -38.167 348 -114.5s123 -186.166 123 -329.499v-242c0 -126.667 -34.167 -219 -102.5 -277s-190.5 -87 -366.5 -87c-292 0 -438.333 105 -439 315zM326.002 1378h239l127 -239
h-176zM459.002 361.998c0 -72 32.668 -108 98.001 -108h2c32.667 0 58 13 76 39s27 53.333 27 82v86c-32.667 2.66699 -55.334 4 -68.001 4c-90 0 -135 -34.333 -135 -103z" />
    <glyph glyph-name="aacute" unicode="&#xe1;" horiz-adv-x="1128" 
d="M106 301c0 20.667 2.50195 41.832 7.50195 63.499s16.667 47.834 35 78.501s42.5 57.667 72.5 81s74.667 43.166 134 59.499s128.666 24.5 207.999 24.5c42 0 72.667 -0.666992 92 -2c0 56 -13.667 96 -41 120s-59.333 36 -96 36
c-102.667 0 -206.334 -21.333 -311.001 -64v267c118.667 47.333 230.667 71 336 71c150 0 266 -38.167 348 -114.5s123 -186.166 123 -329.499v-242c0 -126.667 -34.167 -219 -102.5 -277s-190.5 -87 -366.5 -87c-292 0 -438.333 105 -439 315zM442.002 1139l127 239h240
l-191 -239h-176zM459.002 361.998c0 -72 32.668 -108 98.001 -108h2c32.667 0 58 13 76 39s27 53.333 27 82v86c-32.667 2.66699 -55.334 4 -68.001 4c-90 0 -135 -34.333 -135 -103z" />
    <glyph glyph-name="acircumflex" unicode="&#xe2;" horiz-adv-x="1128" 
d="M106 301c0 20.667 2.50195 41.832 7.50195 63.499s16.667 47.834 35 78.501s42.5 57.667 72.5 81s74.667 43.166 134 59.499s128.666 24.5 207.999 24.5c42 0 72.667 -0.666992 92 -2c0 56 -13.667 96 -41 120s-59.333 36 -96 36
c-102.667 0 -206.334 -21.333 -311.001 -64v267c118.667 47.333 230.667 71 336 71c150 0 266 -38.167 348 -114.5s123 -186.166 123 -329.499v-242c0 -126.667 -34.167 -219 -102.5 -277s-190.5 -87 -366.5 -87c-292 0 -438.333 105 -439 315zM268.002 1139l246 250h98
l246 -250h-209l-86 90l-86 -90h-209zM459.002 361.998c0 -72 32.668 -108 98.001 -108h2c32.667 0 58 13 76 39s27 53.333 27 82v86c-32.667 2.66699 -55.334 4 -68.001 4c-90 0 -135 -34.333 -135 -103z" />
    <glyph glyph-name="atilde" unicode="&#xe3;" horiz-adv-x="1128" 
d="M106 301c0 20.667 2.50195 41.832 7.50195 63.499s16.667 47.834 35 78.501s42.5 57.667 72.5 81s74.667 43.166 134 59.499s128.666 24.5 207.999 24.5c42 0 72.667 -0.666992 92 -2c0 56 -13.667 96 -41 120s-59.333 36 -96 36
c-102.667 0 -206.334 -21.333 -311.001 -64v267c118.667 47.333 230.667 71 336 71c150 0 266 -38.167 348 -114.5s123 -186.166 123 -329.499v-242c0 -126.667 -34.167 -219 -102.5 -277s-190.5 -87 -366.5 -87c-292 0 -438.333 105 -439 315zM252.002 1153
l0.000976562 174c38 45.333 79.333 70 124 74c6.66699 0.666992 13.667 1 21 1c36.667 0 71.667 -8.66699 105 -26l122 -60c34.667 -16.667 70 -25 106 -25c7.33301 0 14.666 0.333008 21.999 1c43.333 4 84 28.667 122 74v-174c-38 -45.333 -78.667 -70 -122 -74
c-8 -0.666992 -15.667 -1 -23 -1c-35.333 0 -70.333 8.33301 -105 25l-122 60c-33.333 17.333 -68.333 26 -105 26c-7.33301 0 -14.333 -0.333008 -21 -1c-44.667 -4 -86 -28.667 -124 -74zM459.003 361.998c0 -72 32.668 -108 98.001 -108h2c32.667 0 58 13 76 39
s27 53.333 27 82v86c-32.667 2.66699 -55.334 4 -68.001 4c-90 0 -135 -34.333 -135 -103z" />
    <glyph glyph-name="adieresis" unicode="&#xe4;" horiz-adv-x="1128" 
d="M106 301c0 20.667 2.50195 41.832 7.50195 63.499s16.667 47.834 35 78.501s42.5 57.667 72.5 81s74.667 43.166 134 59.499s128.666 24.5 207.999 24.5c42 0 72.667 -0.666992 92 -2c0 56 -13.667 96 -41 120s-59.333 36 -96 36
c-102.667 0 -206.334 -21.333 -311.001 -64v267c118.667 47.333 230.667 71 336 71c150 0 266 -38.167 348 -114.5s123 -186.166 123 -329.499v-242c0 -126.667 -34.167 -219 -102.5 -277s-190.5 -87 -366.5 -87c-292 0 -438.333 105 -439 315zM266.002 1139v223h246v-223
h-246zM459.002 361.998c0 -72 32.668 -108 98.001 -108h2c32.667 0 58 13 76 39s27 53.333 27 82v86c-32.667 2.66699 -55.334 4 -68.001 4c-90 0 -135 -34.333 -135 -103zM614.003 1139v223h246v-223h-246z" />
    <glyph glyph-name="aring" unicode="&#xe5;" horiz-adv-x="1128" 
d="M106 301c0 20.667 2.50195 41.832 7.50195 63.499s16.667 47.834 35 78.501s42.5 57.667 72.5 81s74.667 43.166 134 59.499s128.666 24.5 207.999 24.5c42 0 72.667 -0.666992 92 -2c0 56 -13.667 96 -41 120s-59.333 36 -96 36
c-102.667 0 -206.334 -21.333 -311.001 -64v267c118.667 47.333 230.667 71 336 71c150 0 266 -38.167 348 -114.5s123 -186.166 123 -329.499v-242c0 -126.667 -34.167 -219 -102.5 -277s-190.5 -87 -366.5 -87c-292 0 -438.333 105 -439 315zM385.002 1272
c0 56 15.667 99.333 47 130s75 46 131 46c57.333 0 101.333 -15.333 132 -46s46 -74 46 -130s-15.333 -99.333 -46 -130s-74.667 -46 -132 -46c-56 0 -99.667 15.333 -131 46s-47 74 -47 130zM459.002 361.998c0 -72 32.668 -108 98.001 -108h2c32.667 0 58 13 76 39
s27 53.333 27 82v86c-32.667 2.66699 -55.334 4 -68.001 4c-90 0 -135 -34.333 -135 -103zM512.003 1272c0 -24.667 3.83301 -41.5 11.5 -50.5s21 -13.5 40 -13.5s32.167 4.5 39.5 13.5s11 25.833 11 50.5c0 42 -17 63 -51 63s-51 -21 -51 -63z" />
    <glyph glyph-name="ae" unicode="&#xe6;" horiz-adv-x="1792" 
d="M127 297c0 20.667 2.33496 41.832 7.00195 63.499s16.334 47.834 35.001 78.501s43 57.667 73 81s74.667 43.166 134 59.499s128.666 24.5 207.999 24.5c42 0 72.667 -0.666992 92 -2c0 56 -13.667 96 -41 120s-59.333 36 -96 36c-102.667 0 -206.667 -21.333 -312 -64
v267c117.333 47.333 228 71 332 71h4c61.333 0 119.666 -14.667 174.999 -44s96.666 -59.666 123.999 -90.999c23.333 34 61 65.333 113 94s108.667 43 170 43c152.667 0 268.334 -48 347.001 -144s118 -213.667 118 -353c0 -40.667 -2 -77.667 -6 -111h-582
c0 -48 22.5 -88.333 67.5 -121s95.5 -49 151.5 -49c125.333 0 232.666 26.667 321.999 80v-248c-110.667 -70.667 -240.334 -106 -389.001 -106c-64 0 -122.333 16 -175 48s-90 68.333 -112 109c-59.333 -104.667 -165.666 -157 -318.999 -157h-3c-292 0 -438 105 -438 315z
M479.002 357.998c0 -72 33 -108 99 -108h2c32.667 0 57.834 13 75.501 39s26.5 53.333 26.5 82v86c-32.667 2.66699 -55.334 4 -68.001 4c-90 0 -135 -34.333 -135 -103zM1030 636.998h230.004c-2.66699 39.333 -14.334 78.166 -35.001 116.499s-47.334 57.5 -80.001 57.5
s-59.334 -17.667 -80.001 -53s-32.334 -75.666 -35.001 -120.999z" />
    <glyph glyph-name="ccedilla" unicode="&#xe7;" horiz-adv-x="993" 
d="M119 510c0 169.333 42 299.331 126 389.998s204.333 136 361 136c118.667 0 226 -23 322 -69v-262c-92.667 42 -178.667 63 -258 63c-60 0 -108.167 -21.5 -144.5 -64.5s-54.5 -107.5 -54.5 -193.5s18.167 -150.5 54.5 -193.5s84.5 -64.5 144.5 -64.5
c79.333 0 165.333 21 258 63v-262c-70.667 -34 -150 -55 -238 -63l-125 -240h-239l188 240c-128.667 16.667 -226.667 69.334 -294 158.001s-101 209.334 -101 362.001z" />
    <glyph glyph-name="egrave" unicode="&#xe8;" 
d="M131 502c0 162.667 37.833 292.668 113.5 390.001s194.167 146 355.5 146c152.667 0 268.334 -48 347.001 -144s118 -213.667 118 -353c0 -40.667 -2 -77.667 -6 -111h-582c0 -48 22.5 -88.333 67.5 -121s95.5 -49 151.5 -49c125.333 0 232.666 26.667 321.999 80v-248
c-110.667 -70.667 -244.667 -106 -402 -106c-45.333 0 -88.333 3.66699 -129 11s-83.5 22.666 -128.5 45.999s-83.5 53 -115.5 89s-58.667 85.833 -80 149.5s-32 137.167 -32 220.5zM338 1393h240l127 -240h-177zM485 641.001h230.004
c-2.66699 39.333 -14.334 78.166 -35.001 116.499s-47.334 57.5 -80.001 57.5s-59.334 -17.667 -80.001 -53s-32.334 -75.666 -35.001 -120.999z" />
    <glyph glyph-name="eacute" unicode="&#xe9;" 
d="M131 502c0 162.667 37.833 292.668 113.5 390.001s194.167 146 355.5 146c152.667 0 268.334 -48 347.001 -144s118 -213.667 118 -353c0 -40.667 -2 -77.667 -6 -111h-582c0 -48 22.5 -88.333 67.5 -121s95.5 -49 151.5 -49c125.333 0 232.666 26.667 321.999 80v-248
c-110.667 -70.667 -244.667 -106 -402 -106c-45.333 0 -88.333 3.66699 -129 11s-83.5 22.666 -128.5 45.999s-83.5 53 -115.5 89s-58.667 85.833 -80 149.5s-32 137.167 -32 220.5zM475 1139l127 239h240l-191 -239h-176zM485 641.001h230.004
c-2.66699 39.333 -14.334 78.166 -35.001 116.499s-47.334 57.5 -80.001 57.5s-59.334 -17.667 -80.001 -53s-32.334 -75.666 -35.001 -120.999z" />
    <glyph glyph-name="ecircumflex" unicode="&#xea;" 
d="M131 502c0 162.667 37.833 292.668 113.5 390.001s194.167 146 355.5 146c152.667 0 268.334 -48 347.001 -144s118 -213.667 118 -353c0 -40.667 -2 -77.667 -6 -111h-582c0 -48 22.5 -88.333 67.5 -121s95.5 -49 151.5 -49c125.333 0 232.666 26.667 321.999 80v-248
c-110.667 -70.667 -244.667 -106 -402 -106c-45.333 0 -88.333 3.66699 -129 11s-83.5 22.666 -128.5 45.999s-83.5 53 -115.5 89s-58.667 85.833 -80 149.5s-32 137.167 -32 220.5zM301 1139l246 250h98l246 -250h-209l-86 90l-86 -90h-209zM485 641.001h230.004
c-2.66699 39.333 -14.334 78.166 -35.001 116.499s-47.334 57.5 -80.001 57.5s-59.334 -17.667 -80.001 -53s-32.334 -75.666 -35.001 -120.999z" />
    <glyph glyph-name="edieresis" unicode="&#xeb;" 
d="M131 502c0 162.667 37.833 292.668 113.5 390.001s194.167 146 355.5 146c152.667 0 268.334 -48 347.001 -144s118 -213.667 118 -353c0 -40.667 -2 -77.667 -6 -111h-582c0 -48 22.5 -88.333 67.5 -121s95.5 -49 151.5 -49c125.333 0 232.666 26.667 321.999 80v-248
c-110.667 -70.667 -244.667 -106 -402 -106c-45.333 0 -88.333 3.66699 -129 11s-83.5 22.666 -128.5 45.999s-83.5 53 -115.5 89s-58.667 85.833 -80 149.5s-32 137.167 -32 220.5zM299 1139v223h246v-223h-246zM485 641.001h230.004
c-2.66699 39.333 -14.334 78.166 -35.001 116.499s-47.334 57.5 -80.001 57.5s-59.334 -17.667 -80.001 -53s-32.334 -75.666 -35.001 -120.999zM647.004 1139v223h246v-223h-246z" />
    <glyph glyph-name="igrave" unicode="&#xec;" horiz-adv-x="735" 
d="M92 1393h240l127 -240h-176zM197 0h352v1022h-352v-1022z" />
    <glyph glyph-name="iacute" unicode="&#xed;" horiz-adv-x="735" 
d="M197 0h352v1022h-352v-1022zM287 1139l127 239h239l-190 -239h-176z" />
    <glyph glyph-name="icircumflex" unicode="&#xee;" horiz-adv-x="735" 
d="M78 1139l246 250h98l246 -250h-209l-86 90l-86 -90h-209zM197 0h352v1022h-352v-1022z" />
    <glyph glyph-name="idieresis" unicode="&#xef;" horiz-adv-x="735" 
d="M76 1139v223h246v-223h-246zM197 0h352v1022h-352v-1022zM424 1139v223h246v-223h-246z" />
    <glyph glyph-name="eth" unicode="&#xf0;" horiz-adv-x="1271" 
d="M117 481c0 87.333 13.666 160.833 40.999 220.5s65.833 102.667 115.5 129s99.167 44.666 148.5 54.999s106 15.5 170 15.5c82 0 145.333 -9 190 -27c-9.33301 72.667 -50.333 127.334 -123 164.001l-151 -118l-92 114l61 49h-16c-60 0 -126.333 -10 -199 -30v301
c60.667 20 133.667 30 219 30h8c108 0 205 -19.667 291 -59l107 84l92 -117l-68 -53c143.333 -128.667 215 -330.667 215 -606c0 -432.667 -168.333 -649 -505 -649c-87.333 0 -164.833 15 -232.5 45s-120.667 69.5 -159 118.5s-66.666 101.833 -84.999 158.5
s-27.5 115 -27.5 175zM470.999 483c0 -20.667 2.33203 -43.5 6.99902 -68.5s19.5 -52.5 44.5 -82.5s57.833 -45 98.5 -45c44 0 81.667 31.667 113 95c28 58 42 140.333 42 247v28c-35.333 15.333 -85.666 23 -150.999 23c-52 0 -90.667 -19.833 -116 -59.5
s-38 -85.5 -38 -137.5z" />
    <glyph glyph-name="ntilde" unicode="&#xf1;" horiz-adv-x="1308" 
d="M178 0l-0.000976562 912.998c164 82 333.333 123 508 123c144.667 0 259.334 -38.5 344.001 -115.5s127 -183.167 127 -318.5v-602h-352v657c0 20.667 -2.83301 37.834 -8.5 51.501s-21.667 27.334 -48 41.001s-64.833 20.5 -115.5 20.5c-36.667 0 -71 -4 -103 -12v-758
h-352zM341.999 1153v174c38 45.333 79.333 70 124 74c6.66699 0.666992 13.667 1 21 1c36.667 0 71.667 -8.66699 105 -26l122 -60c34.667 -16.667 70 -25 106 -25c7.33301 0 14.666 0.333008 21.999 1c43.333 4 84.333 28.667 123 74v-174c-38 -45.333 -79 -70 -123 -74
c-7.33301 -0.666992 -14.666 -1 -21.999 -1c-36 0 -71.333 8.33301 -106 25l-122 60c-33.333 17.333 -68.333 26 -105 26c-7.33301 0 -14.333 -0.333008 -21 -1c-44.667 -4 -86 -28.667 -124 -74z" />
    <glyph glyph-name="ograve" unicode="&#xf2;" 
d="M92 510c0 169.333 42.667 299 128 389s206.5 135 363.5 135s278.167 -45 363.5 -135s128 -219.667 128 -389s-42.667 -299 -128 -389s-206.5 -135 -363.5 -135s-278.167 45 -363.5 135s-128 219.667 -128 389zM332 1378h239l127 -239h-176zM444 510
c0 -180 46.5 -270 139.5 -270s139.5 90 139.5 270s-46.5 270 -139.5 270s-139.5 -90 -139.5 -270z" />
    <glyph glyph-name="oacute" unicode="&#xf3;" 
d="M92 510c0 169.333 42.667 299 128 389s206.5 135 363.5 135s278.167 -45 363.5 -135s128 -219.667 128 -389s-42.667 -299 -128 -389s-206.5 -135 -363.5 -135s-278.167 45 -363.5 135s-128 219.667 -128 389zM444 510c0 -180 46.5 -270 139.5 -270s139.5 90 139.5 270
s-46.5 270 -139.5 270s-139.5 -90 -139.5 -270zM469 1139l127 239h240l-191 -239h-176z" />
    <glyph glyph-name="ocircumflex" unicode="&#xf4;" 
d="M92 510c0 169.333 42.667 299 128 389s206.5 135 363.5 135s278.167 -45 363.5 -135s128 -219.667 128 -389s-42.667 -299 -128 -389s-206.5 -135 -363.5 -135s-278.167 45 -363.5 135s-128 219.667 -128 389zM289 1139l246 250h98l246 -250h-209l-86 90l-86 -90h-209z
M444 510c0 -180 46.5 -270 139.5 -270s139.5 90 139.5 270s-46.5 270 -139.5 270s-139.5 -90 -139.5 -270z" />
    <glyph glyph-name="otilde" unicode="&#xf5;" 
d="M92 510c0 169.333 42.667 299 128 389s206.5 135 363.5 135s278.167 -45 363.5 -135s128 -219.667 128 -389s-42.667 -299 -128 -389s-206.5 -135 -363.5 -135s-278.167 45 -363.5 135s-128 219.667 -128 389zM276 1153l-0.000976562 174c38 45.333 79.333 70 124 74
c7.33301 0.666992 14.666 1 21.999 1c36.667 0 72 -8.66699 106 -26l122 -60c34 -16.667 69 -25 105 -25c7.33301 0 14.333 0.333008 21 1c44 4 85 28.667 123 74v-174c-38 -45.333 -79 -70 -123 -74c-7.33301 -0.666992 -14.666 -1 -21.999 -1
c-35.333 0 -70 8.33301 -104 25l-122 60c-34 17.333 -69.333 26 -106 26c-7.33301 0 -14.666 -0.333008 -21.999 -1c-44 -4 -85.333 -28.667 -124 -74zM443.999 510c0 -180 46.5 -270 139.5 -270s139.5 90 139.5 270s-46.5 270 -139.5 270s-139.5 -90 -139.5 -270z" />
    <glyph glyph-name="odieresis" unicode="&#xf6;" 
d="M92 510c0 169.333 42.667 299 128 389s206.5 135 363.5 135s278.167 -45 363.5 -135s128 -219.667 128 -389s-42.667 -299 -128 -389s-206.5 -135 -363.5 -135s-278.167 45 -363.5 135s-128 219.667 -128 389zM287 1139v223h245v-223h-245zM444 510
c0 -180 46.5 -270 139.5 -270s139.5 90 139.5 270s-46.5 270 -139.5 270s-139.5 -90 -139.5 -270zM635 1139v223h246v-223h-246z" />
    <glyph glyph-name="divide" unicode="&#xf7;" horiz-adv-x="1286" 
d="M188 418v231h916v-231h-916zM520 47v240h252v-240h-252zM520 782v240h252v-240h-252z" />
    <glyph glyph-name="oslash" unicode="&#xf8;" horiz-adv-x="1255" 
d="M23 0l178.001 208.999c-45.333 79.333 -68 180.333 -68 303c0 169.333 42.667 299 128 389s206.666 135 363.999 135c94 0 175 -16.333 243 -49l31 35h330l-178 -207c43.333 -79.333 65 -178.666 65 -297.999v-5c0 -169.333 -42.667 -299 -128 -389
s-206.333 -135 -363 -135c-92.667 0 -174 16.333 -244 49l-31 -37h-327zM487.001 540.999l193 227c-18.667 9.33301 -37 14 -55 14c-87.333 0 -133.333 -80.333 -138 -241zM569.001 255.999c15.333 -9.33301 34.001 -14 56.001 -14c87.333 0 133.666 79.667 138.999 239z
" />
    <glyph glyph-name="ugrave" unicode="&#xf9;" horiz-adv-x="1269" 
d="M172 461v561h352v-623c0 -100 40.667 -150 122 -150c0.666992 0 1 0.333008 1 1c82 0 123 49.667 123 149v623h352v-561c0 -316.667 -158.333 -475 -475 -475s-475 158.333 -475 475zM391 1378h240l127 -239h-176z" />
    <glyph glyph-name="uacute" unicode="&#xfa;" horiz-adv-x="1269" 
d="M172 461v561h352v-623c0 -100 40.667 -150 122 -150c0.666992 0 1 0.333008 1 1c82 0 123 49.667 123 149v623h352v-561c0 -316.667 -158.333 -475 -475 -475s-475 158.333 -475 475zM537 1139l127 239h239l-190 -239h-176z" />
    <glyph glyph-name="ucircumflex" unicode="&#xfb;" horiz-adv-x="1269" 
d="M172 461v561h352v-623c0 -100 40.667 -150 122 -150c0.666992 0 1 0.333008 1 1c82 0 123 49.667 123 149v623h352v-561c0 -316.667 -158.333 -475 -475 -475s-475 158.333 -475 475zM352 1139l246 250h98l246 -250h-209l-86 90l-86 -90h-209z" />
    <glyph glyph-name="udieresis" unicode="&#xfc;" horiz-adv-x="1269" 
d="M172 461v561h352v-623c0 -100 40.667 -150 122 -150c0.666992 0 1 0.333008 1 1c82 0 123 49.667 123 149v623h352v-561c0 -316.667 -158.333 -475 -475 -475s-475 158.333 -475 475zM350 1139v223h246v-223h-246zM698 1139v223h246v-223h-246z" />
    <glyph glyph-name="yacute" unicode="&#xfd;" horiz-adv-x="1169" 
d="M63 1022h373l148 -588l145 588h371l-373 -1002c-60 -154 -119 -263 -177 -327s-128.667 -96 -212 -96c-88.667 0 -163 14.333 -223 43v256c46.667 -16.667 91.667 -25 135 -25c31.333 0 62 18.833 92 56.5s56 94.5 78 170.5zM485 1139l127 239h240l-190 -239h-177z" />
    <glyph glyph-name="thorn" unicode="&#xfe;" horiz-adv-x="1218" 
d="M172 -375l-0.00195312 1778h350v-379c28.667 4 73 6 133 6c148.667 0 263.334 -44.333 344.001 -133s121 -216.334 121 -383.001s-40.167 -294.334 -120.5 -383.001s-195.166 -133 -344.499 -133c-60 0 -104.333 2 -133 6v-379h-350zM521.998 221.002
c33.333 -2.66699 56 -4 68 -4c118.667 8 178 107 178 297s-59.333 289 -178 297c-12 0 -34.667 -1.33301 -68 -4v-586z" />
    <glyph glyph-name="ydieresis" unicode="&#xff;" horiz-adv-x="1169" 
d="M63 1022h373l148 -588l145 588h371l-373 -1002c-60 -154 -119 -263 -177 -327s-128.667 -96 -212 -96c-88.667 0 -163 14.333 -223 43v256c46.667 -16.667 91.667 -25 135 -25c31.333 0 62 18.833 92 56.5s56 94.5 78 170.5zM287 1139v223h245v-223h-245zM635 1139v223
h246v-223h-246z" />
    <glyph glyph-name="OE" unicode="&#x152;" horiz-adv-x="2160" 
d="M123 684c0 110.667 13 208.326 39 292.993s59.833 151.834 101.5 201.501s91.5 90.334 149.5 122.001s115 52.834 171 63.501s116 16 180 16c112 0 209.667 -17 293 -51v37h952v-287h-600v-252h520v-288h-520v-250h600v-289h-952v39c-83.333 -34 -181 -51 -293 -51
c-64 0 -124 5.33301 -180 16s-113 31.834 -171 63.501s-107.833 72.334 -149.5 122.001s-75.5 116.834 -101.5 201.501s-39 182.334 -39 293.001zM475 683.992c0 -148.667 26.333 -251.667 79 -309s122.667 -86 210 -86s157.333 28.667 210 86s79 160.333 79 309
s-26.333 251.667 -79 309s-122.667 86 -210 86s-157.333 -28.667 -210 -86s-79 -160.333 -79 -309z" />
    <glyph glyph-name="oe" unicode="&#x153;" horiz-adv-x="1853" 
d="M125 512c0 169.333 42.666 299 127.999 389s206.333 135 363 135c126.667 0 229.334 -28.667 308.001 -86c78 58.667 177 88 297 88c152.667 0 268.334 -48 347.001 -144s118 -213.667 118 -353c0 -40.667 -2.33301 -77.667 -7 -111h-581c0 -48 22.5 -88.333 67.5 -121
s95.5 -49 151.5 -49c125.333 0 232.333 26.667 321 80v-248c-110.667 -70.667 -244.334 -106 -401.001 -106c-128.667 0 -232.334 29.333 -311.001 88c-79.333 -57.333 -182.666 -86 -309.999 -86c-157.333 0 -278.5 45 -363.5 135s-127.5 219.667 -127.5 389zM476.999 512
c0 -180 46.5 -270 139.5 -270s139.5 90 139.5 270s-46.5 270 -139.5 270s-139.5 -90 -139.5 -270zM1106 641h229c-2.66699 39.333 -14.167 78.166 -34.5 116.499s-47 57.5 -80 57.5s-59.667 -17.667 -80 -53s-31.833 -75.666 -34.5 -120.999z" />
    <glyph glyph-name="Ydieresis" unicode="&#x178;" horiz-adv-x="1492" 
d="M25 1366h428l290 -520l291 520h428l-542 -791v-575h-353v575zM449 1483v223h245v-223h-245zM797 1483v223h245v-223h-245z" />
    <glyph glyph-name="circumflex" unicode="&#x2c6;" horiz-adv-x="874" 
d="M137 1155l246 250h98l246 -250h-209l-86 90l-86 -90h-209z" />
    <glyph glyph-name="tilde" unicode="&#x2dc;" horiz-adv-x="1058" 
d="M215 1153l-0.000976562 174c38 45.333 79.333 70 124 74c7.33301 0.666992 14.666 1 21.999 1c36.667 0 71.667 -8.66699 105 -26l122 -60c34 -16.667 69 -25 105 -25c7.33301 0 14.333 0.333008 21 1c44 4 85.333 28.667 124 74v-174c-38 -45.333 -79 -70 -123 -74
c-7.33301 -0.666992 -14.666 -1 -21.999 -1c-36 0 -71 8.33301 -105 25l-122 60c-33.333 17.333 -68.333 26 -105 26c-7.33301 0 -14.666 -0.333008 -21.999 -1c-44.667 -4 -86 -28.667 -124 -74z" />
    <glyph glyph-name="endash" unicode="&#x2013;" horiz-adv-x="1146" 
d="M141 475v240h860v-240h-860z" />
    <glyph glyph-name="emdash" unicode="&#x2014;" horiz-adv-x="1824" 
d="M162 475v240h1501v-240h-1501z" />
    <glyph glyph-name="quoteleft" unicode="&#x2018;" horiz-adv-x="616" 
d="M96 1384h285l151 -401h-239z" />
    <glyph glyph-name="quoteright" unicode="&#x2019;" horiz-adv-x="616" 
d="M96 983l152 401h284l-196 -401h-240z" />
    <glyph glyph-name="quotesinglbase" unicode="&#x201a;" horiz-adv-x="698" 
d="M147 -229l152 401h285l-197 -401h-240z" />
    <glyph glyph-name="quotedblleft" unicode="&#x201c;" horiz-adv-x="980" 
d="M98 1384h285l152 -401h-240zM455 1384h284l152 -401h-240z" />
    <glyph glyph-name="quotedblright" unicode="&#x201d;" horiz-adv-x="980" 
d="M98 983l152 401h285l-197 -401h-240zM455 983l151 401h285l-197 -401h-239z" />
    <glyph glyph-name="quotedblbase" unicode="&#x201e;" horiz-adv-x="1056" 
d="M147 -229l152 401h285l-197 -401h-240zM504 -229l151 401h285l-197 -401h-239z" />
    <glyph glyph-name="bullet" unicode="&#x2022;" horiz-adv-x="1085" 
d="M172 665.5c0 102.333 36.5 189.67 109.5 262.003s160.667 108.5 263 108.5s189.333 -35.833 261 -107.5s107.5 -159.334 107.5 -263.001s-35.833 -191.334 -107.5 -263.001s-158.667 -107.5 -261 -107.5s-190 36.167 -263 108.5s-109.5 159.666 -109.5 261.999z" />
    <glyph glyph-name="ellipsis" unicode="&#x2026;" horiz-adv-x="1849" 
d="M219 0v283h295v-283h-295zM780 0v283h295v-283h-295zM1343 0v283h295v-283h-295z" />
    <glyph glyph-name="guilsinglleft" unicode="&#x2039;" horiz-adv-x="819" 
d="M63 522l347 389h338l-373 -389l373 -391h-338z" />
    <glyph glyph-name="guilsinglright" unicode="&#x203a;" horiz-adv-x="843" 
d="M80 131l373 391l-373 389h338l346 -389l-346 -391h-338z" />
    <glyph glyph-name="Euro" unicode="&#x20ac;" horiz-adv-x="1466" 
d="M98 408v190h166c-1.33301 18 -2 46.667 -2 86s0.666992 68.666 2 87.999h-166v191h197c78 279.333 280 419 606 419h2c132.667 0 278.667 -32 438 -96v-305c-136 65.333 -275 98 -417 98c-116 0 -198.667 -38.667 -248 -116h397v-191h-455
c-2.66699 -35.333 -4 -64.666 -4 -87.999c0 -22 1.33301 -50.667 4 -86h455v-190h-397c49.333 -79.333 132 -119 248 -119c142 0 281 32.667 417 98v-305c-160 -64 -306 -96 -438 -96c-328 0 -530.667 140.667 -608 422h-197z" />
    <glyph glyph-name="trademark" unicode="&#x2122;" horiz-adv-x="1581" 
d="M100 1206v160h572v-160h-199v-522h-176v522h-197zM772 684v682h174l160 -233l160 233h174v-682h-176v422l-158 -227l-158 227v-422h-176z" />
    <glyph glyph-name="uniE000" unicode="&#xe000;" horiz-adv-x="1020" 
d="M0 1020h1020v-1020h-1020v1020z" />
    <glyph glyph-name="uniFB01" unicode="&#xfb01;" horiz-adv-x="1462" 
d="M84 774l-0.00195312 248h145c0.666992 282.667 135.334 424 404.001 424c56 0 106.333 -7.66699 151 -23v-211c-19.333 5.33301 -37.666 8.33301 -54.999 9c-48 0 -84.5 -21.167 -109.5 -63.5s-37.5 -87.5 -37.5 -135.5h202v-248h-206v-774h-353v774h-141zM980.998 1139
h360v268h-360v-268zM984.998 0h352v1022h-352v-1022z" />
    <glyph glyph-name="uniFB02" unicode="&#xfb02;" horiz-adv-x="1462" 
d="M82 774l-0.00195312 248h145c0.666992 282.667 135.334 424 404.001 424c56 0 106.333 -7.66699 151 -23v-211c-19.333 5.33301 -37.666 8.33301 -54.999 9c-48 0 -84.5 -21.167 -109.5 -63.5s-37.5 -87.5 -37.5 -135.5h202v-248h-207v-774h-352v774h-141zM982.998 0h352
v1411h-352v-1411z" />
    <glyph glyph-name="uniFB03" unicode="&#xfb03;" horiz-adv-x="2287" 
d="M1745 1139v268h360v-268h-360zM1749 0v1022h352v-1022h-352zM858 774l-0.00195312 248h145c0.666992 282.667 135.334 424 404.001 424c56 0 106.333 -7.66699 151 -23v-211c-19.333 5.33301 -37.666 8.33301 -54.999 9c-48 0 -84.5 -21.167 -109.5 -63.5
s-37.5 -87.5 -37.5 -135.5h202v-248h-207v-774h-352v774h-141zM81.998 774l-0.00195312 248h145c0.666992 282.667 135.334 424 404.001 424c56 0 106.333 -7.66699 151 -23v-211c-19.333 5.33301 -37.666 8.33301 -54.999 9c-48 0 -84.5 -21.167 -109.5 -63.5
s-37.5 -87.5 -37.5 -135.5h202v-248h-207v-774h-352v774h-141z" />
    <glyph glyph-name="uniFB04" unicode="&#xfb04;" horiz-adv-x="2313" 
d="M1759 0v1411h352v-1411h-352zM858 774l-0.00195312 248h145c0.666992 282.667 135.334 424 404.001 424c56 0 106.333 -7.66699 151 -23v-211c-19.333 5.33301 -37.666 8.33301 -54.999 9c-48 0 -84.5 -21.167 -109.5 -63.5s-37.5 -87.5 -37.5 -135.5h202v-248h-207v-774
h-352v774h-141zM81.998 774l-0.00195312 248h145c0.666992 282.667 135.334 424 404.001 424c56 0 106.333 -7.66699 151 -23v-211c-19.333 5.33301 -37.666 8.33301 -54.999 9c-48 0 -84.5 -21.167 -109.5 -63.5s-37.5 -87.5 -37.5 -135.5h202v-248h-207v-774h-352v774
h-141z" />
    <glyph glyph-name=".null" horiz-adv-x="0" 
 />
    <glyph glyph-name="nonmarkingreturn" horiz-adv-x="682" 
 />
    </font>
</defs>
</svg>
